<?xml version="1.0" encoding="UTF-8" standalone="no"?>
<!DOCTYPE svg PUBLIC "-//W3C//DTD SVG 1.0//EN" "http://www.w3.org/TR/2001/PR-SVG-20010719/DTD/svg10.dtd">
<svg width="25cm" height="26cm" viewBox="57 -32 495 505" xmlns="http://www.w3.org/2000/svg" xmlns:xlink="http://www.w3.org/1999/xlink">
  <g>
    <path style="fill: #1c97cd" d="M 130.806 331.146 L 130.806,367.611 L 200.18,367.611 L 200.18,331.146 L 130.806,331.146z"/>
    <path style="fill: #add6e7" d="M 130.806 368.217 L 131.412,367.611 L 131.412,331.146 L 130.2,331.146 L 130.2,367.611 L 130.806,368.217z"/>
    <path style="fill: #add6e7" d="M 200.785 367.611 L 200.18,367.006 L 130.806,367.006 L 130.806,368.217 L 200.18,368.217 L 200.785,367.611z"/>
    <path style="fill: #add6e7" d="M 200.18 330.54 L 199.574,331.146 L 199.574,367.611 L 200.785,367.611 L 200.785,331.146 L 200.18,330.54z"/>
    <path style="fill: #add6e7" d="M 130.2 331.146 L 130.806,331.739 L 200.18,331.739 L 200.18,330.54 L 130.806,330.54 L 130.2,331.146z"/>
    <path style="fill: #1f1a17" d="M 183.839 345.341 L 183.839,342.148 L 189.353,347.637 L 183.839,353.113 L 183.839,349.921 L 163.638,349.921 L 163.638,345.341 L 183.839,345.341z"/>
    <path style="fill: #1f1a17" d="M 183.965 358.022 L 183.965,354.829 L 189.467,360.318 L 183.965,365.795 L 183.965,362.602 L 163.751,362.602 L 163.751,358.022 L 183.965,358.022z"/>
    <path style="fill: #1f1a17" d="M 143.903 343.625 L 143.903,346.817 L 138.377,341.341 L 143.903,335.877 L 143.903,339.044 L 164.105,339.044 L 164.105,343.625 L 143.903,343.625z"/>
    <path style="fill: #1f1a17" d="M 143.903 356.192 L 143.903,359.385 L 138.377,353.921 L 143.903,348.445 L 143.903,351.637 L 164.105,351.637 L 164.105,356.192 L 143.903,356.192z"/>
    <path style="fill: #076086" d="M 200.18 331.146 L 208.709,322.666 L 208.709,359.107 L 200.18,367.611 L 200.18,331.146z"/>
    <path style="fill: #add6e7" d="M 209.315 322.666 L 208.268,322.237 L 199.738,330.717 L 200.609,331.575 L 209.138,323.095 L 209.315,322.666z"/>
    <path style="fill: #add6e7" d="M 209.138 359.536 L 209.315,359.107 L 209.315,322.666 L 208.091,322.666 L 208.091,359.107 L 209.138,359.536z"/>
    <path style="fill: #add6e7" d="M 199.574 367.611 L 200.609,368.041 L 209.138,359.536 L 208.268,358.678 L 199.738,367.195 L 199.574,367.611z"/>
    <path style="fill: #add6e7" d="M 199.738 330.717 L 199.574,331.146 L 199.574,367.611 L 200.785,367.611 L 200.785,331.146 L 199.738,330.717z"/>
    <path style="fill: #1c97cd" d="M 130.781 263.261 L 130.781,331.146 L 200.154,331.146 L 200.154,263.261 L 130.781,263.261z"/>
    <path style="fill: #add6e7" d="M 130.781 331.739 L 131.399,331.146 L 131.399,263.261 L 130.175,263.261 L 130.175,331.146 L 130.781,331.739z"/>
    <path style="fill: #add6e7" d="M 200.773 331.146 L 200.154,330.54 L 130.781,330.54 L 130.781,331.739 L 200.154,331.739 L 200.773,331.146z"/>
    <path style="fill: #add6e7" d="M 200.154 262.655 L 199.549,263.261 L 199.549,331.146 L 200.773,331.146 L 200.773,263.261 L 200.154,262.655z"/>
    <path style="fill: #add6e7" d="M 130.175 263.261 L 130.781,263.854 L 200.154,263.854 L 200.154,262.655 L 130.781,262.655 L 130.175,263.261z"/>
    <path style="fill: #009bdf" d="M 130.806 263.261 L 139.361,254.769 L 208.709,254.769 L 200.18,263.261 L 130.806,263.261z"/>
    <path style="fill: #e6b5c2" d="M 139.361 254.151 L 138.907,254.327 L 130.364,262.832 L 131.235,263.677 L 139.777,255.198 L 139.361,254.151z"/>
    <path style="fill: #e6b5c2" d="M 209.138 255.198 L 208.709,254.151 L 139.361,254.151 L 139.361,255.362 L 208.709,255.362 L 209.138,255.198z"/>
    <path style="fill: #e6b5c2" d="M 200.18 263.854 L 200.609,263.677 L 209.138,255.198 L 208.268,254.327 L 199.738,262.832 L 200.18,263.854z"/>
    <path style="fill: #e6b5c2" d="M 130.364 262.832 L 130.806,263.854 L 200.18,263.854 L 200.18,262.655 L 130.806,262.655 L 130.364,262.832z"/>
    <path style="fill: #e6b5c2" d="M 139.361 254.151 L 138.907,254.327 L 130.364,262.832 L 131.235,263.677 L 139.777,255.198 L 139.361,254.151z"/>
    <path style="fill: #e6b5c2" d="M 209.138 255.198 L 208.709,254.151 L 139.361,254.151 L 139.361,255.362 L 208.709,255.362 L 209.138,255.198z"/>
    <path style="fill: #e6b5c2" d="M 200.18 263.854 L 200.609,263.677 L 209.138,255.198 L 208.268,254.327 L 199.738,262.832 L 200.18,263.854z"/>
    <path style="fill: #e6b5c2" d="M 130.364 262.832 L 130.806,263.854 L 200.18,263.854 L 200.18,262.655 L 130.806,262.655 L 130.364,262.832z"/>
    <path style="fill: #076086" d="M 200.18 263.261 L 208.709,254.769 L 208.709,322.628 L 200.18,331.146 L 200.18,263.261z"/>
    <path style="fill: #add6e7" d="M 209.315 254.769 L 208.268,254.327 L 199.738,262.832 L 200.609,263.677 L 209.138,255.198 L 209.315,254.769z"/>
    <path style="fill: #add6e7" d="M 209.138 323.057 L 209.315,322.628 L 209.315,254.769 L 208.091,254.769 L 208.091,322.628 L 209.138,323.057z"/>
    <path style="fill: #add6e7" d="M 199.574 331.146 L 200.609,331.575 L 209.138,323.057 L 208.268,322.212 L 199.738,330.717 L 199.574,331.146z"/>
    <path style="fill: #add6e7" d="M 199.738 262.832 L 199.574,263.261 L 199.574,331.146 L 200.785,331.146 L 200.785,263.261 L 199.738,262.832z"/>
    <path style="fill: #1f1a17" d="M 157.707 293.481 L 138.856,293.481 L 138.856,290.869 L 133.481,296.131 L 138.856,301.468 L 138.856,298.806 L 157.707,298.806 L 157.707,293.481z"/>
    <path style="fill: #1f1a17" d="M 161.556 289.746 L 148.206,276.472 L 150.175,274.693 L 142.503,274.655 L 142.503,282.137 L 144.395,280.245 L 157.745,293.531 L 161.556,289.746z"/>
    <path style="fill: #1f1a17" d="M 166.868 289.721 L 166.868,270.933 L 169.442,270.933 L 164.18,265.583 L 158.805,270.933 L 161.505,270.933 L 161.505,289.721 L 166.868,289.721z"/>
    <path style="fill: #1f1a17" d="M 170.59 293.531 L 183.94,280.257 L 185.808,282.188 L 185.77,274.579 L 178.262,274.579 L 180.13,276.472 L 166.78,289.759 L 170.59,293.531z"/>
    <path style="fill: #1f1a17" d="M 170.628 298.932 L 189.48,298.932 L 189.48,301.519 L 194.855,296.244 L 189.48,290.907 L 189.48,293.582 L 170.628,293.582 L 170.628,298.932z"/>
    <path style="fill: #1f1a17" d="M 166.78 302.642 L 180.13,315.928 L 178.3,317.695 L 185.833,317.695 L 185.833,310.25 L 183.94,312.143 L 170.59,298.856 L 166.78,302.642z"/>
    <path style="fill: #1f1a17" d="M 161.48 302.654 L 161.48,332.445 L 158.881,332.445 L 164.168,337.795 L 169.53,332.445 L 166.855,332.445 L 166.855,302.654 L 161.48,302.654z"/>
    <path style="fill: #1f1a17" d="M 157.745 298.856 L 144.395,312.118 L 142.566,310.301 L 142.591,317.808 L 150.099,317.808 L 148.206,315.928 L 161.543,302.642 L 157.745,298.856z"/>
    <path style="fill: #ffffff" d="M 158.338 294.099 L 139.487,294.099 L 139.487,291.512 L 134.112,296.774 L 139.487,302.099 L 139.487,299.437 L 158.338,299.437 L 158.338,294.099z"/>
    <path style="fill: #ffffff" d="M 162.187 290.377 L 148.837,277.09 L 150.793,275.311 L 143.134,275.286 L 143.134,282.768 L 145.026,280.875 L 158.376,294.137 L 162.187,290.377z"/>
    <path style="fill: #ffffff" d="M 167.499 290.352 L 167.499,271.576 L 170.073,271.576 L 164.811,266.239 L 159.449,271.576 L 162.149,271.576 L 162.149,290.352 L 167.499,290.352z"/>
    <path style="fill: #ffffff" d="M 171.234 294.175 L 184.584,280.888 L 186.451,282.819 L 186.375,275.21 L 178.868,275.21 L 180.773,277.103 L 167.423,290.389 L 171.234,294.175z"/>
    <path style="fill: #ffffff" d="M 171.272 299.563 L 190.11,299.563 L 190.11,302.137 L 195.486,296.875 L 190.11,291.538 L 190.11,294.213 L 171.272,294.213 L 171.272,299.563z"/>
    <path style="fill: #ffffff" d="M 167.423 303.285 L 180.773,316.547 L 178.918,318.313 L 186.464,318.313 L 186.464,310.894 L 184.584,312.774 L 171.234,299.5 L 167.423,303.285z"/>
    <path style="fill: #ffffff" d="M 162.124 303.285 L 162.124,333.076 L 159.512,333.076 L 164.799,338.426 L 170.161,333.076 L 167.474,333.076 L 167.474,303.285 L 162.124,303.285z"/>
    <path style="fill: #ffffff" d="M 158.376 299.487 L 145.026,312.774 L 143.197,310.932 L 143.209,318.439 L 150.73,318.439 L 148.837,316.547 L 162.187,303.26 L 158.376,299.487z"/>
    <path style="fill: #1f1a17" d="M 174.653 297.191 L 174.641,297.733 L 174.616,298.238 L 174.527,298.793 L 174.426,299.285 L 174.325,299.79 L 174.174,300.295 L 174.022,300.761 L 173.846,301.216 L 173.631,301.695 L 173.392,302.137 L 173.127,302.553 L 172.874,302.995 L 172.584,303.411 L 172.269,303.802 L 171.966,304.181 L 171.6,304.534 L 171.234,304.862 L 170.855,305.203 L 170.426,305.493 L 170.048,305.796 L 169.606,306.086 L 169.177,306.301 L 168.748,306.54 L 168.281,306.755 L 167.814,306.932 L 167.335,307.096 L 166.818,307.247 L 166.313,307.361 L 165.808,307.449 L 165.291,307.525 L 164.761,307.563 L 164.244,307.563 L 163.701,307.563 L 163.158,307.525 L 162.654,307.449 L 162.149,307.361 L 161.619,307.247 L 161.14,307.096 L 160.647,306.932 L 160.168,306.755 L 159.726,306.54 L 159.272,306.301 L 158.818,306.086 L 158.401,305.796 L 157.972,305.493 L 157.606,305.203 L 157.203,304.862 L 156.837,304.534 L 156.509,304.181 L 156.193,303.802 L 155.878,303.411 L 155.575,302.995 L 155.31,302.553 L 155.07,302.137 L 154.818,301.695 L 154.629,301.216 L 154.439,300.761 L 154.275,300.295 L 154.137,299.79 L 154.023,299.285 L 153.922,298.793 L 153.859,298.238 L 153.834,297.733 L 153.821,297.191 L 153.834,296.661 L 153.859,296.131 L 153.922,295.613 L 154.023,295.121 L 154.137,294.591 L 154.275,294.124 L 154.439,293.632 L 154.629,293.153 L 154.818,292.699 L 155.07,292.27 L 155.31,291.815 L 155.575,291.374 L 155.878,290.982 L 156.193,290.604 L 156.509,290.238 L 156.837,289.859 L 157.203,289.519 L 157.606,289.203 L 157.972,288.875 L 158.401,288.598 L 158.818,288.32 L 159.272,288.08 L 159.726,287.866 L 160.168,287.651 L 160.647,287.449 L 161.14,287.273 L 161.619,287.172 L 162.149,287.046 L 162.654,286.957 L 163.158,286.882 L 163.701,286.844 L 164.244,286.831 L 164.761,286.844 L 165.291,286.882 L 165.808,286.957 L 166.313,287.046 L 166.818,287.172 L 167.335,287.273 L 167.814,287.449 L 168.281,287.651 L 168.748,287.866 L 169.177,288.08 L 169.606,288.32 L 170.048,288.598 L 170.426,288.875 L 170.855,289.203 L 171.234,289.519 L 171.6,289.859 L 171.966,290.238 L 172.269,290.604 L 172.584,290.982 L 172.874,291.374 L 173.127,291.815 L 173.392,292.27 L 173.631,292.699 L 173.846,293.153 L 174.022,293.632 L 174.174,294.124 L 174.325,294.591 L 174.426,295.121 L 174.527,295.613 L 174.616,296.131 L 174.641,296.661 L 174.653,297.191z"/>
    <path style="fill: none; fill-opacity:0; stroke-width: 0.22; stroke: #9b322c" d="M 174.653 297.191 L 174.641,297.733 L 174.616,298.238 L 174.527,298.793 L 174.426,299.285 L 174.325,299.79 L 174.174,300.295 L 174.022,300.761 L 173.846,301.216 L 173.631,301.695 L 173.392,302.137 L 173.127,302.553 L 172.874,302.995 L 172.584,303.411 L 172.269,303.802 L 171.966,304.181 L 171.6,304.534 L 171.234,304.862 L 170.855,305.203 L 170.426,305.493 L 170.048,305.796 L 169.606,306.086 L 169.177,306.301 L 168.748,306.54 L 168.281,306.755 L 167.814,306.932 L 167.335,307.096 L 166.818,307.247 L 166.313,307.361 L 165.808,307.449 L 165.291,307.525 L 164.761,307.563 L 164.244,307.563 L 163.701,307.563 L 163.158,307.525 L 162.654,307.449 L 162.149,307.361 L 161.619,307.247 L 161.14,307.096 L 160.647,306.932 L 160.168,306.755 L 159.726,306.54 L 159.272,306.301 L 158.818,306.086 L 158.401,305.796 L 157.972,305.493 L 157.606,305.203 L 157.203,304.862 L 156.837,304.534 L 156.509,304.181 L 156.193,303.802 L 155.878,303.411 L 155.575,302.995 L 155.31,302.553 L 155.07,302.137 L 154.818,301.695 L 154.629,301.216 L 154.439,300.761 L 154.275,300.295 L 154.137,299.79 L 154.023,299.285 L 153.922,298.793 L 153.859,298.238 L 153.834,297.733 L 153.821,297.191 L 153.834,296.661 L 153.859,296.131 L 153.922,295.613 L 154.023,295.121 L 154.137,294.591 L 154.275,294.124 L 154.439,293.632 L 154.629,293.153 L 154.818,292.699 L 155.07,292.27 L 155.31,291.815 L 155.575,291.374 L 155.878,290.982 L 156.193,290.604 L 156.509,290.238 L 156.837,289.859 L 157.203,289.519 L 157.606,289.203 L 157.972,288.875 L 158.401,288.598 L 158.818,288.32 L 159.272,288.08 L 159.726,287.866 L 160.168,287.651 L 160.647,287.449 L 161.14,287.273 L 161.619,287.172 L 162.149,287.046 L 162.654,286.957 L 163.158,286.882 L 163.701,286.844 L 164.244,286.831 L 164.761,286.844 L 165.291,286.882 L 165.808,286.957 L 166.313,287.046 L 166.818,287.172 L 167.335,287.273 L 167.814,287.449 L 168.281,287.651 L 168.748,287.866 L 169.177,288.08 L 169.606,288.32 L 170.048,288.598 L 170.426,288.875 L 170.855,289.203 L 171.234,289.519 L 171.6,289.859 L 171.966,290.238 L 172.269,290.604 L 172.584,290.982 L 172.874,291.374 L 173.127,291.815 L 173.392,292.27 L 173.631,292.699 L 173.846,293.153 L 174.022,293.632 L 174.174,294.124 L 174.325,294.591 L 174.426,295.121 L 174.527,295.613 L 174.616,296.131 L 174.641,296.661 L 174.653,297.191"/>
    <path style="fill: #ffffff" d="M 175.915 298.452 L 175.903,298.982 L 175.865,299.525 L 175.776,300.03 L 175.701,300.522 L 175.575,301.052 L 175.436,301.531 L 175.284,302.023 L 175.095,302.503 L 174.893,302.957 L 174.653,303.411 L 174.414,303.84 L 174.123,304.269 L 173.858,304.673 L 173.543,305.039 L 173.215,305.443 L 172.874,305.796 L 172.483,306.124 L 172.13,306.44 L 171.713,306.78 L 171.335,307.058 L 170.881,307.335 L 170.426,307.563 L 169.997,307.815 L 169.556,308.004 L 169.064,308.193 L 168.584,308.37 L 168.105,308.509 L 167.587,308.635 L 167.083,308.723 L 166.565,308.774 L 166.01,308.812 L 165.493,308.824 L 164.95,308.812 L 164.42,308.774 L 163.915,308.723 L 163.398,308.635 L 162.881,308.509 L 162.389,308.37 L 161.897,308.193 L 161.442,308.004 L 160.975,307.815 L 160.534,307.563 L 160.105,307.335 L 159.663,307.058 L 159.234,306.78 L 158.856,306.44 L 158.465,306.124 L 158.111,305.796 L 157.771,305.443 L 157.442,305.039 L 157.14,304.673 L 156.837,304.269 L 156.572,303.84 L 156.332,303.411 L 156.092,302.957 L 155.878,302.503 L 155.714,302.023 L 155.55,301.531 L 155.411,301.052 L 155.272,300.522 L 155.196,300.03 L 155.121,299.525 L 155.083,298.982 L 155.07,298.452 L 155.083,297.922 L 155.121,297.405 L 155.196,296.875 L 155.272,296.37 L 155.411,295.853 L 155.55,295.374 L 155.714,294.881 L 155.878,294.427 L 156.092,293.96 L 156.332,293.506 L 156.572,293.09 L 156.837,292.661 L 157.14,292.27 L 157.442,291.878 L 157.771,291.475 L 158.111,291.121 L 158.465,290.781 L 158.856,290.465 L 159.234,290.15 L 159.663,289.859 L 160.105,289.582 L 160.534,289.342 L 160.975,289.115 L 161.442,288.901 L 161.897,288.724 L 162.389,288.56 L 162.881,288.408 L 163.398,288.307 L 163.915,288.219 L 164.42,288.131 L 164.95,288.093 L 165.493,288.08 L 166.01,288.093 L 166.565,288.131 L 167.083,288.219 L 167.587,288.307 L 168.105,288.408 L 168.584,288.56 L 169.064,288.724 L 169.556,288.901 L 169.997,289.115 L 170.426,289.342 L 170.881,289.582 L 171.335,289.859 L 171.713,290.15 L 172.13,290.465 L 172.483,290.781 L 172.874,291.121 L 173.215,291.475 L 173.543,291.878 L 173.858,292.27 L 174.123,292.661 L 174.414,293.09 L 174.653,293.506 L 174.893,293.96 L 175.095,294.427 L 175.284,294.881 L 175.436,295.374 L 175.575,295.853 L 175.701,296.37 L 175.776,296.875 L 175.865,297.405 L 175.903,297.922 L 175.915,298.452z"/>
    <path style="fill: #ca3547" d="M 175.284 297.821 L 175.272,298.364 L 175.221,298.894 L 175.145,299.399 L 175.07,299.916 L 174.969,300.408 L 174.805,300.9 L 174.641,301.392 L 174.464,301.847 L 174.237,302.326 L 174.022,302.78 L 173.758,303.209 L 173.505,303.626 L 173.215,304.029 L 172.912,304.408 L 172.571,304.799 L 172.231,305.152 L 171.865,305.493 L 171.499,305.834 L 171.108,306.124 L 170.679,306.44 L 170.25,306.705 L 169.808,306.957 L 169.366,307.184 L 168.912,307.386 L 168.445,307.563 L 167.953,307.739 L 167.449,307.878 L 166.944,307.992 L 166.439,308.08 L 165.922,308.156 L 165.392,308.181 L 164.862,308.193 L 164.332,308.181 L 163.777,308.156 L 163.272,308.08 L 162.78,307.992 L 162.275,307.878 L 161.758,307.739 L 161.278,307.563 L 160.811,307.386 L 160.345,307.184 L 159.916,306.957 L 159.461,306.705 L 159.032,306.44 L 158.616,306.124 L 158.237,305.834 L 157.859,305.493 L 157.48,305.152 L 157.14,304.799 L 156.824,304.408 L 156.509,304.029 L 156.219,303.626 L 155.966,303.209 L 155.689,302.78 L 155.461,302.326 L 155.247,301.847 L 155.07,301.392 L 154.906,300.9 L 154.78,300.408 L 154.641,299.916 L 154.566,299.399 L 154.477,298.894 L 154.465,298.364 L 154.439,297.821 L 154.465,297.291 L 154.477,296.774 L 154.566,296.244 L 154.641,295.739 L 154.78,295.247 L 154.906,294.743 L 155.07,294.263 L 155.247,293.796 L 155.461,293.329 L 155.689,292.875 L 155.966,292.446 L 156.219,292.03 L 156.509,291.613 L 156.824,291.235 L 157.14,290.844 L 157.48,290.49 L 157.859,290.162 L 158.237,289.822 L 158.616,289.519 L 159.032,289.229 L 159.461,288.951 L 159.916,288.724 L 160.345,288.484 L 160.811,288.27 L 161.278,288.093 L 161.758,287.929 L 162.275,287.778 L 162.78,287.651 L 163.272,287.576 L 163.777,287.513 L 164.332,287.475 L 164.862,287.449 L 165.392,287.475 L 165.922,287.513 L 166.439,287.576 L 166.944,287.651 L 167.449,287.778 L 167.953,287.929 L 168.445,288.093 L 168.912,288.27 L 169.366,288.484 L 169.808,288.724 L 170.25,288.951 L 170.679,289.229 L 171.108,289.519 L 171.499,289.822 L 171.865,290.162 L 172.231,290.49 L 172.571,290.844 L 172.912,291.235 L 173.215,291.613 L 173.505,292.03 L 173.758,292.446 L 174.022,292.875 L 174.237,293.329 L 174.464,293.796 L 174.641,294.263 L 174.805,294.743 L 174.969,295.247 L 175.07,295.739 L 175.145,296.244 L 175.221,296.774 L 175.272,297.291 L 175.284,297.821z"/>
    <path style="fill: #ffffff" d="M 184.47 345.959 L 184.47,342.779 L 189.997,348.268 L 184.47,353.732 L 184.47,350.552 L 164.269,350.552 L 164.269,345.959 L 184.47,345.959z"/>
    <path style="fill: #ffffff" d="M 184.584 358.64 L 184.584,355.448 L 190.11,360.937 L 184.584,366.425 L 184.584,363.22 L 164.382,363.22 L 164.382,358.64 L 184.584,358.64z"/>
    <path style="fill: #ffffff" d="M 144.522 344.268 L 144.522,347.448 L 139.02,341.972 L 144.522,336.496 L 144.522,339.688 L 164.723,339.688 L 164.723,344.268 L 144.522,344.268z"/>
    <path style="fill: #ffffff" d="M 144.522 356.836 L 144.522,360.028 L 139.02,354.539 L 144.522,349.05 L 144.522,352.243 L 164.723,352.243 L 164.723,356.836 L 144.522,356.836z"/>
    <path style="fill: #ca3547" d="M 177.227 263.021 L 154.086,263.021 L 154.048,252.22 L 177.202,252.207 L 177.227,263.021z"/>
    <path style="fill: #e6b5c2" d="M 153.48 263.021 L 154.086,263.639 L 177.227,263.639 L 177.227,262.428 L 154.086,262.428 L 153.48,263.021z"/>
    <path style="fill: #e6b5c2" d="M 154.048 251.614 L 153.455,252.22 L 153.48,263.021 L 154.679,263.021 L 154.667,252.22 L 154.048,251.614z"/>
    <path style="fill: #e6b5c2" d="M 177.821 252.207 L 177.202,251.589 L 154.048,251.614 L 154.048,252.813 L 177.202,252.813 L 177.821,252.207z"/>
    <path style="fill: #e6b5c2" d="M 177.227 263.639 L 177.833,263.021 L 177.821,252.207 L 176.597,252.207 L 176.634,263.021 L 177.227,263.639z"/>
    <path style="fill: #ca3547" d="M 200.255 263.021 L 177.202,263.021 L 177.227,252.283 L 200.281,252.296 L 200.255,263.021z"/>
    <path style="fill: #e6b5c2" d="M 176.597 263.021 L 177.202,263.639 L 200.255,263.639 L 200.255,262.428 L 177.202,262.415 L 176.597,263.021z"/>
    <path style="fill: #e6b5c2" d="M 177.227 251.665 L 176.634,252.283 L 176.597,263.021 L 177.821,263.021 L 177.833,252.283 L 177.227,251.665z"/>
    <path style="fill: #e6b5c2" d="M 200.861 252.296 L 200.281,251.69 L 177.227,251.665 L 177.227,252.889 L 200.281,252.889 L 200.861,252.296z"/>
    <path style="fill: #e6b5c2" d="M 200.255 263.639 L 200.861,263.021 L 200.861,252.296 L 199.675,252.296 L 199.662,263.021 L 200.255,263.639z"/>
    <path style="fill: #ca3547" d="M 153.783 263.021 L 130.806,263.008 L 130.781,252.157 L 153.783,252.157 L 153.783,263.021z"/>
    <path style="fill: #e6b5c2" d="M 130.2 263.008 L 130.806,263.614 L 153.783,263.639 L 153.783,262.428 L 130.806,262.39 L 130.2,263.008z"/>
    <path style="fill: #e6b5c2" d="M 130.781 251.551 L 130.175,252.157 L 130.2,263.008 L 131.412,263.008 L 131.399,252.157 L 130.781,251.551z"/>
    <path style="fill: #e6b5c2" d="M 154.389 252.157 L 153.783,251.551 L 130.781,251.551 L 130.781,252.75 L 153.783,252.775 L 154.389,252.157z"/>
    <path style="fill: #e6b5c2" d="M 153.783 263.639 L 154.389,263.021 L 154.389,252.157 L 153.178,252.157 L 153.178,263.021 L 153.783,263.639z"/>
    <path style="fill: #ca3547" d="M 154.086 252.359 L 130.806,252.334 L 130.781,241.495 L 154.137,241.495 L 154.086,252.359z"/>
    <path style="fill: #e6b5c2" d="M 130.2 252.334 L 130.806,252.952 L 154.086,252.965 L 154.086,251.766 L 130.806,251.728 L 130.2,252.334z"/>
    <path style="fill: #e6b5c2" d="M 130.781 240.889 L 130.175,241.495 L 130.2,252.334 L 131.412,252.334 L 131.399,241.495 L 130.781,240.889z"/>
    <path style="fill: #e6b5c2" d="M 154.742 241.495 L 154.137,240.889 L 130.781,240.889 L 130.781,242.088 L 154.137,242.1 L 154.742,241.495z"/>
    <path style="fill: #e6b5c2" d="M 154.086 252.965 L 154.667,252.384 L 154.742,241.495 L 153.518,241.495 L 153.48,252.359 L 154.086,252.965z"/>
    <path style="fill: #ca3547" d="M 200.217 252.334 L 176.862,252.334 L 176.874,241.495 L 200.243,241.495 L 200.217,252.334z"/>
    <path style="fill: #e6b5c2" d="M 176.243 252.334 L 176.862,252.952 L 200.217,252.952 L 200.217,251.728 L 176.862,251.728 L 176.243,252.334z"/>
    <path style="fill: #e6b5c2" d="M 176.874 240.889 L 176.256,241.495 L 176.243,252.334 L 177.467,252.334 L 177.492,241.495 L 176.874,240.889z"/>
    <path style="fill: #e6b5c2" d="M 200.836 241.495 L 200.243,240.889 L 176.874,240.889 L 176.874,242.088 L 200.243,242.1 L 200.836,241.495z"/>
    <path style="fill: #e6b5c2" d="M 200.217 252.952 L 200.836,252.334 L 200.836,241.495 L 199.624,241.495 L 199.612,252.334 L 200.217,252.952z"/>
    <path style="fill: #ca3547" d="M 189.252 252.296 L 165.922,252.283 L 165.922,241.495 L 189.24,241.495 L 189.252,252.296z"/>
    <path style="fill: #e6b5c2" d="M 165.316 252.283 L 165.922,252.889 L 189.252,252.889 L 189.252,251.69 L 165.922,251.665 L 165.316,252.283z"/>
    <path style="fill: #e6b5c2" d="M 165.922 240.889 L 165.316,241.495 L 165.316,252.283 L 166.527,252.283 L 166.527,241.495 L 165.922,240.889z"/>
    <path style="fill: #e6b5c2" d="M 189.833 241.495 L 189.24,240.889 L 165.922,240.889 L 165.922,242.088 L 189.24,242.1 L 189.833,241.495z"/>
    <path style="fill: #e6b5c2" d="M 189.252 252.889 L 189.833,252.296 L 189.833,241.495 L 188.621,241.495 L 188.647,252.296 L 189.252,252.889z"/>
    <path style="fill: #ca3547" d="M 165.934 252.359 L 142.869,252.334 L 142.894,241.495 L 165.922,241.495 L 165.934,252.359z"/>
    <path style="fill: #e6b5c2" d="M 142.288 252.334 L 142.869,252.952 L 165.934,252.965 L 165.934,251.766 L 142.869,251.728 L 142.288,252.334z"/>
    <path style="fill: #e6b5c2" d="M 142.894 240.889 L 142.288,241.495 L 142.288,252.334 L 143.474,252.334 L 143.5,241.495 L 142.894,240.889z"/>
    <path style="fill: #e6b5c2" d="M 166.527 241.495 L 165.922,240.889 L 142.894,240.889 L 142.894,242.088 L 165.922,242.1 L 166.527,241.495z"/>
    <path style="fill: #e6b5c2" d="M 165.934 252.965 L 166.54,252.359 L 166.527,241.495 L 165.316,241.495 L 165.329,252.359 L 165.934,252.965z"/>
    <path style="fill: #b53233" d="M 204.47 237.571 L 208.709,233.356 L 208.709,222.593 L 204.47,226.795 L 204.47,237.571z"/>
    <path style="fill: #e6b5c2" d="M 209.315 233.356 L 208.268,232.915 L 204.028,237.154 L 204.899,237.987 L 209.138,233.773 L 209.315,233.356z"/>
    <path style="fill: #e6b5c2" d="M 208.268 222.189 L 208.091,222.593 L 208.091,233.356 L 209.315,233.356 L 209.302,222.593 L 208.268,222.189z"/>
    <path style="fill: #e6b5c2" d="M 203.851 226.795 L 204.886,227.211 L 209.138,223.022 L 208.268,222.189 L 204.028,226.378 L 203.851,226.795z"/>
    <path style="fill: #e6b5c2" d="M 204.899 237.987 L 205.075,237.571 L 205.075,226.795 L 203.851,226.795 L 203.851,237.571 L 204.899,237.987z"/>
    <path style="fill: #e46968" d="M 180.937 226.643 L 184.962,222.593 L 208.457,222.593 L 204.419,226.643 L 180.937,226.643z"/>
    <path style="fill: #e6b5c2" d="M 184.962 222.025 L 184.546,222.189 L 180.521,226.214 L 181.366,227.047 L 185.391,223.022 L 184.962,222.025z"/>
    <path style="fill: #e6b5c2" d="M 208.886 223.022 L 208.457,222.025 L 184.962,222.025 L 184.962,223.211 L 208.457,223.211 L 208.886,223.022z"/>
    <path style="fill: #e6b5c2" d="M 204.419 227.236 L 204.836,227.072 L 208.886,223.022 L 208.041,222.189 L 203.99,226.214 L 204.419,227.236z"/>
    <path style="fill: #e6b5c2" d="M 180.521 226.214 L 180.937,227.236 L 204.419,227.236 L 204.419,226.025 L 180.937,226.025 L 180.521,226.214z"/>
    <path style="fill: #e46968" d="M 153.493 230.782 L 157.632,226.606 L 181.101,226.606 L 176.95,230.744 L 153.493,230.782z"/>
    <path style="fill: #e6b5c2" d="M 157.632 226.013 L 157.203,226.177 L 153.051,230.315 L 153.922,231.186 L 158.073,227.035 L 157.632,226.013z"/>
    <path style="fill: #e6b5c2" d="M 181.53 227.035 L 181.101,226.013 L 157.632,226.013 L 157.632,227.199 L 181.101,227.199 L 181.53,227.035z"/>
    <path style="fill: #e6b5c2" d="M 176.95 231.337 L 177.366,231.186 L 181.53,227.035 L 180.66,226.177 L 176.521,230.315 L 176.95,231.337z"/>
    <path style="fill: #e6b5c2" d="M 153.051 230.315 L 153.493,231.35 L 176.95,231.337 L 176.95,230.151 L 153.493,230.151 L 153.051,230.315z"/>
    <path style="fill: #e46968" d="M 158.048 226.643 L 162.061,222.593 L 184.962,222.593 L 180.937,226.643 L 158.048,226.643z"/>
    <path style="fill: #e6b5c2" d="M 162.061 222 L 161.644,222.189 L 157.619,226.214 L 158.465,227.047 L 162.502,223.022 L 162.061,222z"/>
    <path style="fill: #e6b5c2" d="M 185.391 223.022 L 184.962,222 L 162.061,222 L 162.061,223.211 L 184.962,223.211 L 185.391,223.022z"/>
    <path style="fill: #e6b5c2" d="M 180.937 227.249 L 181.366,227.072 L 185.391,223.022 L 184.571,222.189 L 180.496,226.214 L 180.937,227.249z"/>
    <path style="fill: #e6b5c2" d="M 157.619 226.214 L 158.048,227.236 L 180.937,227.249 L 180.937,226.05 L 158.048,226.025 L 157.619,226.214z"/>
    <path style="fill: #e46968" d="M 130.806 230.782 L 134.945,226.606 L 158.073,226.606 L 153.922,230.744 L 130.806,230.782z"/>
    <path style="fill: #e6b5c2" d="M 134.945 226.025 L 134.528,226.177 L 130.364,230.353 L 131.21,231.186 L 135.374,227.047 L 134.945,226.025z"/>
    <path style="fill: #e6b5c2" d="M 158.502 227.047 L 158.073,226.025 L 134.945,226.025 L 134.945,227.211 L 158.073,227.211 L 158.502,227.047z"/>
    <path style="fill: #e6b5c2" d="M 153.922 231.337 L 154.364,231.186 L 158.502,227.047 L 157.632,226.177 L 153.493,230.315 L 153.922,231.337z"/>
    <path style="fill: #e6b5c2" d="M 130.364 230.353 L 130.806,231.375 L 153.922,231.337 L 153.922,230.151 L 130.806,230.189 L 130.364,230.353z"/>
    <path style="fill: #e46968" d="M 134.894 226.643 L 138.945,222.593 L 162.086,222.593 L 158.036,226.643 L 134.894,226.643z"/>
    <path style="fill: #e6b5c2" d="M 138.945 222.025 L 138.515,222.189 L 134.453,226.214 L 135.348,227.047 L 139.361,223.022 L 138.945,222.025z"/>
    <path style="fill: #e6b5c2" d="M 162.515 223.022 L 162.086,222.025 L 138.945,222.025 L 138.945,223.211 L 162.086,223.211 L 162.515,223.022z"/>
    <path style="fill: #e6b5c2" d="M 158.036 227.236 L 158.452,227.072 L 162.515,223.022 L 161.669,222.189 L 157.606,226.214 L 158.036,227.236z"/>
    <path style="fill: #e6b5c2" d="M 134.453 226.214 L 134.894,227.236 L 158.036,227.236 L 158.036,226.025 L 134.894,226.025 L 134.453,226.214z"/>
    <path style="fill: #b53233" d="M 204.621 248.321 L 208.709,244.233 L 208.709,233.356 L 204.608,237.432 L 204.621,248.321z"/>
    <path style="fill: #e6b5c2" d="M 209.315 244.233 L 208.268,243.804 L 204.192,247.879 L 205.063,248.712 L 209.138,244.649 L 209.315,244.233z"/>
    <path style="fill: #e6b5c2" d="M 208.268 232.915 L 208.091,233.356 L 208.091,244.233 L 209.315,244.233 L 209.302,233.356 L 208.268,232.915z"/>
    <path style="fill: #e6b5c2" d="M 203.99 237.432 L 205.037,237.848 L 209.138,233.773 L 208.268,232.915 L 204.192,237.003 L 203.99,237.432z"/>
    <path style="fill: #e6b5c2" d="M 205.063 248.712 L 205.214,248.321 L 205.214,237.432 L 203.99,237.432 L 204.015,248.321 L 205.063,248.712z"/>
    <path style="fill: #b53233" d="M 200.217 252.46 L 204.381,248.296 L 204.394,237.331 L 200.243,241.495 L 200.217,252.46z"/>
    <path style="fill: #e6b5c2" d="M 204.974 248.296 L 203.965,247.879 L 199.826,252.018 L 200.659,252.889 L 204.798,248.712 L 204.974,248.296z"/>
    <path style="fill: #e6b5c2" d="M 203.965 236.877 L 203.788,237.331 L 203.776,248.296 L 204.974,248.296 L 204.987,237.331 L 203.965,236.877z"/>
    <path style="fill: #e6b5c2" d="M 199.624 241.495 L 200.684,241.886 L 204.81,237.747 L 203.965,236.877 L 199.826,241.066 L 199.624,241.495z"/>
    <path style="fill: #e6b5c2" d="M 200.659 252.889 L 200.836,252.46 L 200.836,241.495 L 199.624,241.495 L 199.612,252.46 L 200.659,252.889z"/>
    <path style="fill: #b53233" d="M 204.634 259.059 L 208.709,254.996 L 208.709,244.233 L 204.621,248.258 L 204.634,259.059z"/>
    <path style="fill: #e6b5c2" d="M 209.315 254.996 L 208.268,254.567 L 204.205,258.643 L 205.075,259.513 L 209.138,255.438 L 209.315,254.996z"/>
    <path style="fill: #e6b5c2" d="M 208.268 243.804 L 208.091,244.233 L 208.091,254.996 L 209.315,254.996 L 209.302,244.233 L 208.268,243.804z"/>
    <path style="fill: #e6b5c2" d="M 204.015 248.258 L 205.063,248.687 L 209.138,244.649 L 208.268,243.804 L 204.205,247.804 L 204.015,248.258z"/>
    <path style="fill: #e6b5c2" d="M 205.075 259.513 L 205.239,259.059 L 205.239,248.258 L 204.015,248.258 L 204.028,259.059 L 205.075,259.513z"/>
    <path style="fill: #b53233" d="M 200.217 263.185 L 204.394,259.046 L 204.394,248.296 L 200.243,252.422 L 200.217,263.185z"/>
    <path style="fill: #e6b5c2" d="M 204.987 259.046 L 203.965,258.63 L 199.826,262.743 L 200.659,263.601 L 204.798,259.475 L 204.987,259.046z"/>
    <path style="fill: #e6b5c2" d="M 203.965 247.879 L 203.788,248.296 L 203.788,259.046 L 204.987,259.046 L 204.987,248.296 L 203.965,247.879z"/>
    <path style="fill: #e6b5c2" d="M 199.624 252.422 L 200.659,252.851 L 204.798,248.712 L 203.965,247.879 L 199.826,251.98 L 199.624,252.422z"/>
    <path style="fill: #e6b5c2" d="M 200.659 263.601 L 200.836,263.185 L 200.836,252.422 L 199.624,252.422 L 199.612,263.185 L 200.659,263.601z"/>
    <path style="fill: #ca3547" d="M 177.152 241.495 L 153.947,241.495 L 153.922,230.706 L 177.152,230.706 L 177.152,241.495z"/>
    <path style="fill: #e6b5c2" d="M 153.354 241.495 L 153.947,242.088 L 177.152,242.1 L 177.152,240.902 L 153.947,240.889 L 153.354,241.495z"/>
    <path style="fill: #e6b5c2" d="M 153.922 230.088 L 153.316,230.706 L 153.354,241.495 L 154.553,241.495 L 154.515,230.706 L 153.922,230.088z"/>
    <path style="fill: #e6b5c2" d="M 177.745 230.706 L 177.152,230.113 L 153.922,230.088 L 153.922,231.299 L 177.152,231.299 L 177.745,230.706z"/>
    <path style="fill: #e6b5c2" d="M 177.152 242.1 L 177.757,241.495 L 177.745,230.706 L 176.546,230.706 L 176.546,241.495 L 177.152,242.1z"/>
    <path style="fill: #ca3547" d="M 153.947 241.495 L 130.806,241.533 L 130.781,230.706 L 153.922,230.706 L 153.947,241.495z"/>
    <path style="fill: #e6b5c2" d="M 130.2 241.533 L 130.806,242.126 L 153.947,242.1 L 153.947,240.902 L 130.806,240.902 L 130.2,241.533z"/>
    <path style="fill: #e6b5c2" d="M 130.781 230.088 L 130.175,230.706 L 130.2,241.533 L 131.412,241.533 L 131.399,230.706 L 130.781,230.088z"/>
    <path style="fill: #e6b5c2" d="M 154.515 230.706 L 153.922,230.113 L 130.781,230.088 L 130.781,231.299 L 153.922,231.299 L 154.515,230.706z"/>
    <path style="fill: #e6b5c2" d="M 153.947 242.1 L 154.553,241.495 L 154.515,230.706 L 153.329,230.706 L 153.329,241.495 L 153.947,242.1z"/>
    <path style="fill: #ca3547" d="M 200.192 241.57 L 177.152,241.558 L 177.152,230.706 L 200.18,230.706 L 200.192,241.57z"/>
    <path style="fill: #e6b5c2" d="M 176.546 241.558 L 177.152,242.164 L 200.192,242.189 L 200.192,240.977 L 177.152,240.94 L 176.546,241.558z"/>
    <path style="fill: #e6b5c2" d="M 177.152 230.088 L 176.546,230.706 L 176.546,241.558 L 177.745,241.558 L 177.757,230.706 L 177.152,230.088z"/>
    <path style="fill: #e6b5c2" d="M 200.785 230.706 L 200.18,230.113 L 177.152,230.088 L 177.152,231.299 L 200.18,231.299 L 200.785,230.706z"/>
    <path style="fill: #e6b5c2" d="M 200.192 242.189 L 200.785,241.57 L 200.785,230.706 L 199.574,230.706 L 199.574,241.57 L 200.192,242.189z"/>
    <path style="fill: #e46968" d="M 176.937 230.782 L 181.089,226.606 L 204.419,226.606 L 200.281,230.744 L 176.937,230.782z"/>
    <path style="fill: #e6b5c2" d="M 181.089 226.025 L 180.647,226.177 L 176.521,230.315 L 177.354,231.186 L 181.518,227.047 L 181.089,226.025z"/>
    <path style="fill: #e6b5c2" d="M 204.836 227.047 L 204.419,226.025 L 181.089,226.025 L 181.089,227.211 L 204.419,227.211 L 204.836,227.047z"/>
    <path style="fill: #e6b5c2" d="M 200.281 231.337 L 200.684,231.186 L 204.836,227.047 L 203.99,226.177 L 199.851,230.315 L 200.281,231.337z"/>
    <path style="fill: #e6b5c2" d="M 176.521 230.315 L 176.937,231.35 L 200.281,231.337 L 200.281,230.151 L 176.937,230.151 L 176.521,230.315z"/>
    <path style="fill: #b53233" d="M 200.205 241.533 L 204.419,237.318 L 204.432,226.517 L 200.192,230.744 L 200.205,241.533z"/>
    <path style="fill: #e6b5c2" d="M 205.025 237.318 L 203.99,236.864 L 199.751,241.116 L 200.621,241.949 L 204.836,237.735 L 205.025,237.318z"/>
    <path style="fill: #e6b5c2" d="M 203.99 226.101 L 203.826,226.517 L 203.826,237.318 L 205.025,237.318 L 205.037,226.517 L 203.99,226.101z"/>
    <path style="fill: #e6b5c2" d="M 199.574 230.744 L 200.621,231.186 L 204.861,226.934 L 203.99,226.101 L 199.751,230.315 L 199.574,230.744z"/>
    <path style="fill: #e6b5c2" d="M 200.621 241.949 L 200.798,241.533 L 200.798,230.744 L 199.574,230.744 L 199.599,241.533 L 200.621,241.949z"/>
  </g>
  <g>
    <path style="fill: #c9c9b6" d="M 139.748 173.329 L 143.82,169.529 L 174.224,169.529 L 170.158,173.329 L 139.748,173.329z"/>
    <path style="fill: none; fill-opacity:0; stroke-width: 0.02; stroke: #494936" d="M 139.748 173.329 L 143.82,169.529 L 174.224,169.529 L 170.158,173.329 L 139.748,173.329"/>
    <path style="fill: #b7b79d" d="M 139.748 173.329 L 170.158,173.329 L 170.158,179.041 L 139.748,179.041 L 139.748,173.329z"/>
    <path style="fill: none; fill-opacity:0; stroke-width: 0.02; stroke: #494936" d="M 139.748 173.329 L 170.158,173.329 L 170.158,179.041 L 139.748,179.041 L 139.748,173.329"/>
    <path style="fill: #7a7a5a" d="M 170.158 179.041 L 174.224,174.989 L 174.224,169.529 L 170.158,173.329 L 170.158,179.041z"/>
    <path style="fill: none; fill-opacity:0; stroke-width: 0.02; stroke: #494936" d="M 170.158 179.041 L 174.224,174.989 L 174.224,169.529 L 170.158,173.329 L 170.158,179.041"/>
    <path style="fill: #000000" d="M 140.714 172.615 L 143.82,169.529 L 173.504,169.529 L 170.392,172.615 L 140.714,172.615z"/>
    <path style="fill: none; fill-opacity:0; stroke-width: 0.02; stroke: #000000" d="M 140.714 172.615 L 143.82,169.529 L 173.504,169.529 L 170.392,172.615 L 140.714,172.615"/>
    <path style="fill: #c9c9b6" d="M 139.748 148.086 L 143.107,145 L 173.504,145 L 170.158,148.086 L 139.748,148.086z"/>
    <path style="fill: none; fill-opacity:0; stroke-width: 0.02; stroke: #494936" d="M 139.748 148.086 L 143.107,145 L 173.504,145 L 170.158,148.086 L 139.748,148.086"/>
    <path style="fill: #b7b79d" d="M 139.748 148.086 L 170.385,148.086 L 170.385,172.142 L 139.748,172.142 L 139.748,148.086z"/>
    <path style="fill: none; fill-opacity:0; stroke-width: 0.02; stroke: #494936" d="M 139.748 148.086 L 170.379,148.086 L 170.379,172.129 L 139.748,172.129 L 139.748,148.086"/>
    <path style="fill: #ffffff" d="M 142.4 151.186 L 167.766,151.186 L 167.766,169.763 L 142.4,169.763 L 142.4,151.186z"/>
    <path style="fill: none; fill-opacity:0; stroke-width: 0.02; stroke: #494936" d="M 142.4 151.186 L 167.759,151.186 L 167.759,169.75 L 142.4,169.75 L 142.4,151.186"/>
    <path style="fill: #7a7a5a" d="M 170.158 171.889 L 173.504,168.563 L 173.504,145 L 170.158,148.086 L 170.158,171.889z"/>
    <path style="fill: none; fill-opacity:0; stroke-width: 0.02; stroke: #494936" d="M 170.158 171.889 L 173.504,168.563 L 173.504,145 L 170.158,148.086 L 170.158,171.889"/>
    <path style="fill: #c9c9b6" d="M 133.776 183.8 L 138.562,177.855 L 171.578,177.855 L 166.799,183.8 L 133.776,183.8z"/>
    <path style="fill: none; fill-opacity:0; stroke-width: 0.02; stroke: #494936" d="M 133.809 183.762 L 138.562,177.855 L 171.578,177.855 L 166.799,183.8 L 133.809,183.8"/>
    <path style="fill: #7a7a5a" d="M 166.799 185 L 171.578,179.994 L 171.578,177.855 L 166.799,183.8 L 166.799,185z"/>
    <path style="fill: none; fill-opacity:0; stroke-width: 0.02; stroke: #494936" d="M 166.819 184.968 L 171.578,179.994 L 171.578,177.855 L 166.799,183.8 L 166.799,184.968"/>
    <path style="fill: #b7b79d" d="M 133.776 183.8 L 166.799,183.8 L 166.799,185 L 133.776,185 L 133.776,183.8z"/>
    <path style="fill: none; fill-opacity:0; stroke-width: 0.02; stroke: #494936" d="M 133.809 183.8 L 166.799,183.8 L 166.799,184.968"/>
  </g>
  <g>
    <path style="fill: none; fill-opacity:0; stroke-width: 0.8; stroke: #626248" d="M 101.072 307.323 L 101.289,307.107 L 101.482,306.878 L 101.658,306.638 L 101.816,306.404 L 101.957,306.169 L 102.062,305.923 L 102.162,305.677 L 102.214,305.425 L 102.261,305.168 L 102.285,304.927 L 102.273,304.675 L 102.25,304.424 L 102.197,304.178 L 102.132,303.92 L 102.039,303.674 L 101.916,303.434 L 101.781,303.193 L 101.617,302.959 L 101.429,302.731 L 101.23,302.502 L 101.002,302.291 L 100.762,302.074 L 100.492,301.864 L 100.217,301.67 L 99.918,301.477 L 99.6016,301.301 L 99.256,301.125 L 98.9162,300.95 L 98.5472,300.797 L 98.1722,300.657 L 97.7739,300.522 L 97.3755,300.399 L 96.9596,300.288 L 96.5319,300.188 L 96.1043,300.094 L 95.6649,300.024 L 95.2197,299.96 L 94.7686,299.895 L 94.3117,299.86 L 93.8489,299.831 L 93.3919,299.813 L 92.9291,299.813 L 92.4663,299.819 L 91.9977,299.842 L 91.5407,299.883 L 91.0838,299.919 L 90.6444,299.983 L 90.1992,300.059 L 89.7598,300.141 L 89.3322,300.235 L 88.9162,300.34 L 88.5003,300.452 L 88.1078,300.592 L 87.7153,300.727 L 87.3462,300.873 L 86.9947,301.032 L 86.6432,301.207 L 86.3269,301.383 L 86.0105,301.565 L 85.7176,301.764 L 85.4482,301.963 L 85.2021,302.174 L 84.9678,302.391 L 84.7452,302.619 L 84.546,302.848"/>
    <path style="fill: none; fill-opacity:0; stroke-width: 0.04; stroke: #ecece7" d="M 101.013 307.089 L 101.213,306.878 L 101.4,306.65 L 101.558,306.433 L 101.705,306.199 L 101.816,305.97 L 101.91,305.73 L 101.986,305.49 L 102.039,305.244 L 102.062,305.004 L 102.068,304.757 L 102.056,304.523 L 102.015,304.277 L 101.945,304.043 L 101.863,303.797 L 101.752,303.568 L 101.617,303.334 L 101.465,303.105 L 101.289,302.883 L 101.095,302.666 L 100.873,302.449 L 100.639,302.244 L 100.393,302.039 L 100.111,301.846 L 99.8125,301.664 L 99.5021,301.483 L 99.1798,301.313 L 98.8401,301.155 L 98.4769,301.002 L 98.1019,300.868 L 97.727,300.733 L 97.3228,300.616 L 96.9186,300.504 L 96.5026,300.399 L 96.075,300.317 L 95.6415,300.241 L 95.208,300.17 L 94.7627,300.124 L 94.3117,300.088 L 93.8547,300.059 L 93.3978,300.042 L 92.9408,300.042 L 92.4897,300.047 L 92.0387,300.071 L 91.5817,300.112 L 91.1306,300.147 L 90.6796,300.211 L 90.2519,300.276 L 89.8184,300.352 L 89.4025,300.446 L 88.9807,300.551 L 88.5882,300.668 L 88.1898,300.791 L 87.809,300.926 L 87.4517,301.073 L 87.1002,301.231 L 86.7663,301.389 L 86.4441,301.565 L 86.1394,301.746 L 85.8524,301.934 L 85.5829,302.139 L 85.3427,302.338 L 85.1201,302.549 L 84.9033,302.76 L 84.7217,302.977"/>
    <path style="fill: #c9c9b6" d="M 94.4991 311.43 L 97.3931,307.628 L 102.525,307.628 L 99.8535,311.43 L 94.4991,311.43z"/>
    <path style="fill: none; fill-opacity:0; stroke-width: 0.02; stroke: #494936" d="M 94.4991 311.43 L 97.3931,307.628 L 102.525,307.628 L 99.8535,311.43 L 94.4991,311.43"/>
    <path style="fill: #7a7a5a" d="M 99.8535 313 L 102.525,310.1 L 102.525,307.628 L 99.8535,311.43 L 99.8535,313z"/>
    <path style="fill: none; fill-opacity:0; stroke-width: 0.02; stroke: #494936" d="M 99.8535 313 L 102.525,310.1 L 102.525,307.628 L 99.8535,311.43 L 99.8535,313"/>
    <path style="fill: #b7b79d" d="M 94.4991 311.43 L 99.8535,311.43 L 99.8535,312.772 L 94.4991,312.772 L 94.4991,311.43z"/>
    <path style="fill: none; fill-opacity:0; stroke-width: 0.02; stroke: #494936" d="M 94.4991 311.43 L 99.8535,311.43 L 99.8535,312.772 L 94.4991,312.772 L 94.4991,311.43"/>
    <path style="fill: #a5a585" d="M 64.1711 300.932 L 88.0316,300.932 L 88.0316,306.298 L 64.1711,306.298 L 64.1711,300.932z"/>
    <path style="fill: none; fill-opacity:0; stroke-width: 0.02; stroke: #494936" d="M 64.1711 300.932 L 88.0316,300.932 L 88.0316,306.298 L 64.1711,306.298 L 64.1711,300.932"/>
    <path style="fill: #626248" d="M 87.8032 306.298 L 92.2613,301.822 L 92.4897,298.249 L 87.8032,302.719 L 87.8032,306.298z"/>
    <path style="fill: none; fill-opacity:0; stroke-width: 0.02; stroke: #494936" d="M 87.8032 306.298 L 92.2613,301.822 L 92.4897,298.249 L 87.8032,302.719 L 87.8032,306.298"/>
    <path style="fill: #c9c9b6" d="M 57.4751 311.43 L 61.9332,305.847 L 92.7065,305.847 L 88.2484,311.43 L 57.4751,311.43z"/>
    <path style="fill: none; fill-opacity:0; stroke-width: 0.02; stroke: #494936" d="M 57.4751 311.43 L 61.9332,305.847 L 92.7065,305.847 L 88.2484,311.43 L 57.4751,311.43"/>
    <path style="fill: #7a7a5a" d="M 88.2484 312.772 L 92.7065,308.308 L 92.7065,305.847 L 88.2484,311.43 L 88.2484,312.772z"/>
    <path style="fill: none; fill-opacity:0; stroke-width: 0.02; stroke: #494936" d="M 88.2484 312.772 L 92.7065,308.308 L 92.7065,305.847 L 88.2484,311.43 L 88.2484,312.772"/>
    <path style="fill: #b7b79d" d="M 57.4751 311.43 L 88.2484,311.43 L 88.2484,312.772 L 57.4751,312.772 L 57.4751,311.43z"/>
    <path style="fill: none; fill-opacity:0; stroke-width: 0.02; stroke: #494936" d="M 57.4751 311.43 L 88.2484,311.43 L 88.2484,312.772 L 57.4751,312.772 L 57.4751,311.43"/>
    <path style="fill: #7a7a5a" d="M 89.5899 303.164 L 94.4991,298.032 L 94.4991,296.691 L 89.5899,301.822 L 89.5899,303.164z"/>
    <path style="fill: none; fill-opacity:0; stroke-width: 0.02; stroke: #494936" d="M 89.5899 303.164 L 94.4991,298.032 L 94.4991,296.691 L 89.5899,301.822 L 89.5899,303.164"/>
    <path style="fill: #b7b79d" d="M 89.5899 303.164 L 61.4821,303.164 L 61.4821,301.822 L 89.5899,301.822 L 89.5899,303.164z"/>
    <path style="fill: none; fill-opacity:0; stroke-width: 0.02; stroke: #494936" d="M 89.5899 303.164 L 61.4821,303.164 L 61.4821,301.822 L 89.5899,301.822 L 89.5899,303.164"/>
    <path style="fill: #b7b79d" d="M 94.4991 296.691 L 66.3913,296.691 L 61.4821,301.822 L 89.5899,301.822 L 94.4991,296.691z"/>
    <path style="fill: none; fill-opacity:0; stroke-width: 0.02; stroke: #494936" d="M 94.4991 296.691 L 66.3913,296.691 L 61.4821,301.822 L 89.5899,301.822 L 94.4991,296.691"/>
    <path style="fill: #7a7a5a" d="M 65.0557 298.249 L 88.9279,298.249 L 89.8125,299.362 L 65.9402,299.362 L 65.0557,298.249z"/>
    <path style="fill: none; fill-opacity:0; stroke-width: 0.02; stroke: #494936" d="M 65.0557 298.249 L 88.9279,298.249 L 89.8125,299.362 L 65.9402,299.362 L 65.0557,298.249"/>
    <path style="fill: #626248" d="M 91.5934 295.349 L 88.9279,298.249 L 89.8125,299.362 L 92.4897,296.691 L 91.5934,295.349z"/>
    <path style="fill: none; fill-opacity:0; stroke-width: 0.02; stroke: #494936" d="M 91.5934 295.349 L 88.9279,298.249 L 89.8125,299.362 L 92.4897,296.691 L 91.5934,295.349"/>
    <path style="fill: #c9c9b6" d="M 63.0463 275.912 L 66.1687,273 L 94.4991,273 L 91.3767,275.912 L 63.0463,275.912z"/>
    <path style="fill: none; fill-opacity:0; stroke-width: 0.02; stroke: #494936" d="M 63.0463 275.912 L 66.1687,273 L 94.4991,273 L 91.3767,275.912 L 63.0463,275.912"/>
    <path style="fill: #b7b79d" d="M 63.0463 275.912 L 91.5934,275.912 L 91.5934,298.477 L 63.0463,298.477 L 63.0463,275.912z"/>
    <path style="fill: none; fill-opacity:0; stroke-width: 0.02; stroke: #494936" d="M 63.0463 275.912 L 91.5876,275.912 L 91.5876,298.472 L 63.0463,298.472 L 63.0463,275.912"/>
    <path style="fill: #ffffff" d="M 65.495 278.811 L 89.1388,278.811 L 89.1388,296.24 L 65.495,296.24 L 65.495,278.811z"/>
    <path style="fill: none; fill-opacity:0; stroke-width: 0.02; stroke: #494936" d="M 65.495 278.811 L 89.133,278.811 L 89.133,296.234 L 65.495,296.234 L 65.495,278.811"/>
    <path style="fill: #7a7a5a" d="M 91.3767 298.249 L 94.4991,295.127 L 94.4991,273 L 91.3767,275.912 L 91.3767,298.249z"/>
    <path style="fill: none; fill-opacity:0; stroke-width: 0.02; stroke: #494936" d="M 91.3767 298.249 L 94.4991,295.127 L 94.4991,273 L 91.3767,275.912 L 91.3767,298.249"/>
  </g>
  <g>
    <path style="fill: #0096d4" d="M 202.754 456.097 L 112.106,456.097 L 112.106,400.781 L 202.754,400.781 L 202.754,456.097z"/>
    <path style="fill: none; fill-opacity:0; stroke-width: 0.02; stroke: #aae6ff" d="M 202.754 456.097 L 112.31,456.097"/>
    <path style="fill: none; fill-opacity:0; stroke-width: 0.02; stroke: #aae6ff" d="M 112.31 400.781 L 202.754,400.781 L 202.754,456.097"/>
    <path style="fill: #005a80" d="M 202.754 456.097 L 212.663,447.006 L 212.663,391 L 202.754,400.781 L 202.754,456.097z"/>
    <path style="fill: none; fill-opacity:0; stroke-width: 0.02; stroke: #aae6ff" d="M 202.754 456.097 L 212.663,447.006 L 212.663,391.396"/>
    <path style="fill: none; fill-opacity:0; stroke-width: 0.02; stroke: #aae6ff" d="M 212.241 391.396 L 202.754,400.781 L 202.754,456.097"/>
    <path style="fill: #00b4ff" d="M 202.754 400.781 L 212.663,391 L 122.002,391 L 112.106,400.781 L 202.754,400.781z"/>
    <path style="fill: none; fill-opacity:0; stroke-width: 0.02; stroke: #aae6ff" d="M 202.754 400.781 L 212.241,391.396"/>
    <path style="fill: none; fill-opacity:0; stroke-width: 0.02; stroke: #aae6ff" d="M 121.593 391.396 L 112.31,400.577"/>
    <path style="fill: none; fill-opacity:0; stroke-width: 0.02; stroke: #aae6ff" d="M 112.31 400.781 L 202.754,400.781"/>
    <path style="fill: #000000" d="M 120.61 426.715 L 120.61,430.891 L 149.609,430.891 L 149.609,433.7 L 154.589,428.81 L 149.609,423.906 L 149.609,426.715 L 120.61,426.715z"/>
    <path style="fill: #000000" d="M 160.233 426.715 L 160.233,430.891 L 189.998,430.891 L 189.998,433.7 L 194.965,428.81 L 189.998,423.906 L 189.998,426.715 L 160.233,426.715z"/>
    <path style="fill: #000000" d="M 158.138 419.705 L 160.233,423.906 L 187.15,411.277 L 187.865,414.087 L 189.998,407.779 L 183.626,404.982 L 185.056,407.779 L 158.138,419.705z"/>
    <path style="fill: #000000" d="M 158.138 437.212 L 160.233,433.023 L 187.15,445.588 L 187.865,442.792 L 189.998,449.1 L 183.626,451.896 L 185.056,449.1 L 158.138,437.212z"/>
    <path style="fill: #ffffff" d="M 121.299 427.392 L 121.299,431.606 L 150.336,431.606 L 150.336,434.415 L 155.291,429.486 L 150.336,424.596 L 150.336,427.392 L 121.299,427.392z"/>
    <path style="fill: #ffffff" d="M 160.96 427.392 L 160.96,431.606 L 190.713,431.606 L 190.713,434.415 L 195.654,429.486 L 190.713,424.596 L 190.713,427.392 L 160.96,427.392z"/>
    <path style="fill: #ffffff" d="M 158.815 420.382 L 160.96,424.596 L 187.865,411.993 L 188.606,414.802 L 190.713,408.494 L 184.328,405.697 L 185.745,408.494 L 158.815,420.382z"/>
    <path style="fill: #ffffff" d="M 158.815 437.914 L 160.96,433.7 L 187.865,446.303 L 188.606,443.52 L 190.713,449.815 L 184.328,452.611 L 185.745,449.815 L 158.815,437.914z"/>
  </g>
  <g>
    <path style="fill: #3cafe4" d="M 237.888 401.142 L 293.38,356 L 421.478,356 L 375.542,401.142 L 237.888,401.142z"/>
    <path style="fill: none; fill-opacity:0; stroke-width: 0.02; stroke: #add6e7" d="M 237.888 401.142 L 293.278,356.102"/>
    <path style="fill: none; fill-opacity:0; stroke-width: 0.02; stroke: #add6e7" d="M 421.35 356.102 L 375.542,401.142 L 237.888,401.142"/>
    <path style="fill: #076086" d="M 375.542 458.76 L 421.478,411.697 L 421.478,356.051 L 375.542,401.142 L 375.542,458.76z"/>
    <path style="fill: none; fill-opacity:0; stroke-width: 0.02; stroke: #add6e7" d="M 375.542 458.76 L 421.478,411.697 L 421.478,356.102"/>
    <path style="fill: none; fill-opacity:0; stroke-width: 0.02; stroke: #add6e7" d="M 421.401 356.102 L 375.542,401.142 L 375.542,458.76"/>
    <path style="fill: #1c97cd" d="M 375.542 458.837 L 375.542,401.142 L 238.067,401.142 L 238.067,458.837 L 375.542,458.837z"/>
    <path style="fill: #add6e7" d="M 375.542 400.501 L 374.902,401.142 L 374.902,458.837 L 376.183,458.837 L 376.183,401.142 L 375.542,400.501 L 376.183,401.142 L 376.183,400.501 L 375.542,400.501z"/>
    <path style="fill: #add6e7" d="M 237.427 401.142 L 238.067,401.782 L 375.542,401.782 L 375.542,400.501 L 238.067,400.501 L 237.427,401.142 L 238.067,400.501 L 237.427,400.501 L 237.427,401.142z"/>
    <path style="fill: #add6e7" d="M 238.067 459.478 L 238.708,458.837 L 238.708,401.142 L 237.427,401.142 L 237.427,458.837 L 238.067,459.478 L 237.427,458.837 L 237.427,459.478 L 238.067,459.478z"/>
    <path style="fill: #add6e7" d="M 376.183 458.837 L 375.542,458.197 L 238.067,458.197 L 238.067,459.478 L 375.542,459.478 L 376.183,458.837 L 375.542,459.478 L 376.183,459.478 L 376.183,458.837z"/>
    <path style="fill: #000000" d="M 316.515 363.788 L 345.106,360.945 L 339.572,370.168 L 332.296,368.733 L 289.537,384.976 L 281.877,382.849 L 323.739,366.811 L 316.515,363.788z"/>
    <path style="fill: #000000" d="M 349.59 373.959 L 378.156,371.141 L 372.699,380.339 L 365.346,378.878 L 322.587,395.147 L 314.926,393.072 L 356.789,377.034 L 349.59,373.959z"/>
    <path style="fill: #ffffff" d="M 316.668 365.223 L 345.234,362.405 L 339.726,371.577 L 332.424,370.193 L 289.614,386.411 L 282.005,384.31 L 323.893,368.297 L 316.668,365.223z"/>
    <path style="fill: #ffffff" d="M 349.718 375.42 L 378.309,372.602 L 372.801,381.799 L 365.499,380.364 L 322.689,396.607 L 315.08,394.506 L 356.968,378.468 L 349.718,375.42z"/>
    <path style="fill: #000000" d="M 283.132 423.559 L 283.132,412.722 L 262.329,412.722 L 262.329,423.559 L 283.132,423.559z"/>
    <path style="fill: #000000" d="M 330.682 423.559 L 330.682,412.722 L 351.434,412.722 L 351.434,423.559 L 330.682,423.559z"/>
    <path style="fill: #000000" d="M 283.132 450.818 L 283.132,439.93 L 262.329,439.93 L 262.329,450.818 L 283.132,450.818z"/>
    <path style="fill: #000000" d="M 330.682 450.818 L 330.682,439.93 L 351.434,439.93 L 351.434,450.818 L 330.682,450.818z"/>
    <path style="fill: #000000" d="M 340.315 417.385 L 276.471,417.385 L 276.471,418.947 L 340.315,418.947 L 340.315,417.385z"/>
    <path style="fill: #000000" d="M 340.315 444.465 L 276.471,444.465 L 276.471,446.027 L 340.315,446.027 L 340.315,444.465z"/>
    <path style="fill: #000000" d="M 340.033 417.436 L 272.475,444.67 L 273.038,446.104 L 340.623,418.871 L 340.033,417.436z"/>
    <path style="fill: #000000" d="M 340.623 444.67 L 273.038,417.436 L 272.475,418.871 L 340.033,446.104 L 340.623,444.67z"/>
    <path style="fill: #ffffff" d="M 282.261 422.611 L 282.261,411.748 L 261.432,411.748 L 261.432,422.611 L 282.261,422.611z"/>
    <path style="fill: #ffffff" d="M 329.786 422.611 L 329.786,411.748 L 350.563,411.748 L 350.563,422.611 L 329.786,422.611z"/>
    <path style="fill: #ffffff" d="M 282.261 449.819 L 282.261,438.931 L 261.432,438.931 L 261.432,449.819 L 282.261,449.819z"/>
    <path style="fill: #ffffff" d="M 329.786 449.819 L 329.786,438.931 L 350.563,438.931 L 350.563,449.819 L 329.786,449.819z"/>
    <path style="fill: #ffffff" d="M 339.47 416.385 L 275.549,416.385 L 275.549,417.948 L 339.47,417.948 L 339.47,416.385z"/>
    <path style="fill: #ffffff" d="M 339.47 443.465 L 275.549,443.465 L 275.549,445.054 L 339.47,445.054 L 339.47,443.465z"/>
    <path style="fill: #ffffff" d="M 339.162 416.462 L 271.527,443.696 L 272.141,445.105 L 339.726,417.897 L 339.162,416.462z"/>
    <path style="fill: #ffffff" d="M 339.726 443.696 L 272.141,416.462 L 271.527,417.897 L 339.162,445.105 L 339.726,443.696z"/>
  </g>
  <g>
    <path style="fill: #0078aa" d="M 351.966 232.036 C 351.966,242.227 330.718,250.281 304.507,250.281 C 278.293,250.281 257.045,242.014 257.045,232.036 L 257.045,301.489 C 257.045,311.686 278.293,319.734 304.507,319.734 C 330.718,319.734 351.966,311.474 351.966,301.489 L 351.966,232.036z"/>
    <path style="fill: none; fill-opacity:0; stroke-width: 0.02; stroke: #000000" d="M 351.966 232.036 C 351.966,242.227 330.718,250.281 304.507,250.281 C 278.293,250.281 257.045,242.014 257.045,232.036 L 257.045,301.489 C 257.045,311.686 278.293,319.734 304.507,319.734 C 330.718,319.734 351.966,311.474 351.966,301.489 L 351.966,232.036"/>
    <path style="fill: none; fill-opacity:0; stroke-width: 0.2; stroke: #add6e7" d="M 351.966 232.036 C 351.966,242.227 330.718,250.281 304.507,250.281 C 278.293,250.281 257.045,242.014 257.045,232.036 L 257.045,301.489 C 257.045,311.686 278.293,319.734 304.507,319.734 C 330.718,319.734 351.966,311.474 351.966,301.489 L 351.966,232.036"/>
    <path style="fill: #00b4ff" d="M 304.507 250.49 C 330.718,250.49 351.966,242.224 351.966,232.245 C 351.966,222.051 330.718,214 304.507,214 C 278.293,214 257.045,222.26 257.045,232.245 C 257.045,242.436 278.293,250.49 304.507,250.49z"/>
    <path style="fill: none; fill-opacity:0; stroke-width: 0.02; stroke: #000000" d="M 304.507 250.49 C 330.718,250.49 351.966,242.224 351.966,232.245 C 351.966,222.051 330.718,214 304.507,214 C 278.293,214 257.045,222.26 257.045,232.245 C 257.045,242.436 278.293,250.49 304.507,250.49"/>
    <path style="fill: none; fill-opacity:0; stroke-width: 0.2; stroke: #add6e7" d="M 304.507 250.49 C 330.718,250.49 351.966,242.224 351.966,232.245 C 351.966,222.051 330.718,214 304.507,214 C 278.293,214 257.045,222.26 257.045,232.245 C 257.045,242.436 278.293,250.49 304.507,250.49"/>
    <path style="fill: #ffffff" d="M 293.669 224.817 L 297.589,230.694 L 282.771,234.121 L 286.007,231.426 L 263.108,227.509 L 268.852,223.205 L 290.949,226.945 L 293.669,224.817 L 293.669,224.817z"/>
    <path style="fill: none; fill-opacity:0; stroke-width: 0.02; stroke: #ffffff" d="M 293.669 224.817 L 297.589,230.694 L 282.771,234.121 L 286.007,231.426 L 263.108,227.509 L 268.852,223.205 L 290.949,226.945 L 293.669,224.817 L 293.669,224.817"/>
    <path style="fill: #ffffff" d="M 314.519 239.07 L 311.842,233.013 L 325.208,230.342 L 322.889,232.418 L 345.166,236.222 L 339.823,240.497 L 317.677,236.337 L 314.516,239.067 L 314.519,239.07z"/>
    <path style="fill: none; fill-opacity:0; stroke-width: 0.02; stroke: #ffffff" d="M 314.519 239.07 L 311.842,233.013 L 325.208,230.342 L 322.889,232.418 L 345.166,236.222 L 339.823,240.497 L 317.677,236.337 L 314.516,239.067 L 314.519,239.07"/>
    <path style="fill: #ffffff" d="M 307.215 221.608 L 322.182,217.509 L 322.361,223.924 L 318.621,223.211 L 311.314,229.267 L 304.346,228.256 L 311.881,222.33 L 307.218,221.608 L 307.215,221.608z"/>
    <path style="fill: none; fill-opacity:0; stroke-width: 0.02; stroke: #ffffff" d="M 307.215 221.608 L 322.182,217.509 L 322.361,223.924 L 318.621,223.211 L 311.314,229.267 L 304.346,228.256 L 311.881,222.33 L 307.218,221.608 L 307.215,221.608"/>
    <path style="fill: #ffffff" d="M 300.797 244.598 L 286.538,247.269 L 286.004,240.673 L 290.102,241.565 L 297.95,234.868 L 304.896,236.043 L 296.517,243.35 L 300.797,244.601 L 300.797,244.598z"/>
    <path style="fill: none; fill-opacity:0; stroke-width: 0.02; stroke: #ffffff" d="M 300.797 244.598 L 286.538,247.269 L 286.004,240.673 L 290.102,241.565 L 297.95,234.868 L 304.896,236.043 L 296.517,243.35 L 300.797,244.601 L 300.797,244.598"/>
    <path style="fill: #ffffff" d="M 305.236 274.832 L 305.236,259.868 L 307.777,259.868 L 304.034,254.224 L 300.287,259.868 L 302.825,259.868 L 302.825,274.832 L 305.239,274.832 L 305.236,274.832z"/>
    <path style="fill: none; fill-opacity:0; stroke-width: 0.02; stroke: #ffffff" d="M 305.236 274.832 L 305.236,259.868 L 307.777,259.868 L 304.034,254.224 L 300.287,259.868 L 302.825,259.868 L 302.825,274.832 L 305.239,274.832 L 305.236,274.832"/>
    <path style="fill: #ffffff" d="M 297.607 276.993 L 287.027,266.413 L 288.821,264.619 L 282.179,263.274 L 283.524,269.917 L 285.318,268.122 L 295.901,278.699 L 297.61,276.99 L 297.607,276.993z"/>
    <path style="fill: none; fill-opacity:0; stroke-width: 0.02; stroke: #ffffff" d="M 297.607 276.993 L 287.027,266.413 L 288.821,264.619 L 282.179,263.274 L 283.524,269.917 L 285.318,268.122 L 295.901,278.699 L 297.61,276.99 L 297.607,276.993"/>
    <path style="fill: #ffffff" d="M 293.736 284.136 L 278.77,284.136 L 278.77,281.595 L 273.123,285.338 L 278.77,289.088 L 278.77,286.547 L 293.736,286.547 L 293.736,284.133 L 293.736,284.136z"/>
    <path style="fill: none; fill-opacity:0; stroke-width: 0.02; stroke: #ffffff" d="M 293.736 284.136 L 278.77,284.136 L 278.77,281.595 L 273.123,285.338 L 278.77,289.088 L 278.77,286.547 L 293.736,286.547 L 293.736,284.133 L 293.736,284.136"/>
    <path style="fill: #ffffff" d="M 295.898 291.553 L 285.315,302.136 L 283.521,300.341 L 282.176,306.984 L 288.818,305.639 L 287.024,303.845 L 297.604,293.262 L 295.898,291.553 L 295.898,291.553z"/>
    <path style="fill: none; fill-opacity:0; stroke-width: 0.02; stroke: #ffffff" d="M 295.898 291.553 L 285.315,302.136 L 283.521,300.341 L 282.176,306.984 L 288.818,305.639 L 287.024,303.845 L 297.604,293.262 L 295.898,291.553 L 295.898,291.553"/>
    <path style="fill: #ffffff" d="M 302.822 295.423 L 302.822,310.387 L 300.284,310.387 L 304.031,316.037 L 307.774,310.387 L 305.233,310.387 L 305.233,295.423 L 302.819,295.423 L 302.822,295.423z"/>
    <path style="fill: none; fill-opacity:0; stroke-width: 0.02; stroke: #ffffff" d="M 302.822 295.423 L 302.822,310.387 L 300.284,310.387 L 304.031,316.037 L 307.774,310.387 L 305.233,310.387 L 305.233,295.423 L 302.819,295.423 L 302.822,295.423"/>
    <path style="fill: #ffffff" d="M 310.457 293.262 L 321.034,303.845 L 319.24,305.639 L 325.885,306.984 L 324.541,300.341 L 322.743,302.136 L 312.167,291.553 L 310.46,293.262 L 310.457,293.262z"/>
    <path style="fill: none; fill-opacity:0; stroke-width: 0.02; stroke: #ffffff" d="M 310.457 293.262 L 321.034,303.845 L 319.24,305.639 L 325.885,306.984 L 324.541,300.341 L 322.743,302.136 L 312.167,291.553 L 310.46,293.262 L 310.457,293.262"/>
    <path style="fill: #ffffff" d="M 314.328 286.337 L 329.295,286.337 L 329.295,288.878 L 334.938,285.129 L 329.295,281.386 L 329.295,283.927 L 314.328,283.927 L 314.328,286.34 L 314.328,286.337z"/>
    <path style="fill: none; fill-opacity:0; stroke-width: 0.02; stroke: #ffffff" d="M 314.328 286.337 L 329.295,286.337 L 329.295,288.878 L 334.938,285.129 L 329.295,281.386 L 329.295,283.927 L 314.328,283.927 L 314.328,286.34 L 314.328,286.337"/>
    <path style="fill: #ffffff" d="M 312.167 278.702 L 322.743,268.125 L 324.541,269.92 L 325.885,263.277 L 319.24,264.622 L 321.034,266.416 L 310.457,276.996 L 312.167,278.702z"/>
    <path style="fill: none; fill-opacity:0; stroke-width: 0.02; stroke: #ffffff" d="M 312.167 278.702 L 322.743,268.125 L 324.541,269.92 L 325.885,263.277 L 319.24,264.622 L 321.034,266.416 L 310.457,276.996 L 312.167,278.702"/>
    <path style="fill: #e4405c" d="M 313.187 297.673 C 320.196,292.764 321.899,283.104 316.99,276.091 C 312.082,269.082 302.422,267.379 295.415,272.287 C 288.405,277.196 286.705,286.859 291.614,293.869 C 296.52,300.879 306.183,302.579 313.187,297.673z"/>
    <path style="fill: none; fill-opacity:0; stroke-width: 0.02; stroke: #ffffff" d="M 313.187 297.673 C 320.196,292.764 321.899,283.104 316.99,276.091 C 312.082,269.082 302.422,267.379 295.415,272.287 C 288.405,277.196 286.705,286.859 291.614,293.869 C 296.52,300.879 306.183,302.579 313.187,297.673"/>
  </g>
  <g>
    <path style="fill: #0078aa" d="M 429.051 189.762 L 428.932,188.516 L 428.675,187.27 L 428.24,186.044 L 427.627,184.837 L 426.796,183.611 L 425.827,182.424 L 424.66,181.258 L 423.354,180.11 L 421.851,178.983 L 420.19,177.895 L 418.39,176.847 L 416.432,175.779 L 414.316,174.77 L 412.061,173.821 L 409.648,172.911 L 407.116,172.041 L 404.486,171.19 L 401.717,170.419 L 398.849,169.687 L 395.862,168.995 L 392.777,168.362 L 389.592,167.828 L 386.349,167.274 L 383.065,166.839 L 379.683,166.424 L 376.242,166.107 L 372.761,165.81 L 369.24,165.613 L 365.719,165.415 L 362.159,165.355 L 358.599,165.296 L 358.599,165.296 L 355.019,165.355 L 351.459,165.415 L 347.938,165.613 L 344.418,165.81 L 340.937,166.107 L 337.495,166.424 L 334.113,166.839 L 330.81,167.274 L 327.566,167.828 L 324.402,168.362 L 321.316,168.995 L 318.33,169.687 L 315.462,170.419 L 312.693,171.19 L 310.043,172.041 L 307.531,172.911 L 305.118,173.821 L 302.863,174.77 L 300.747,175.779 L 298.789,176.847 L 296.989,177.895 L 295.327,178.983 L 293.824,180.11 L 292.519,181.258 L 291.352,182.424 L 290.383,183.611 L 289.552,184.837 L 288.919,186.044 L 288.464,187.27 L 288.227,188.516 L 288.128,189.762 L 288.128,189.762 L 288.227,190.989 L 288.464,192.235 L 288.919,193.461 L 289.552,194.667 L 290.383,195.894 L 291.352,197.08 L 292.519,198.247 L 293.824,199.395 L 295.327,200.522 L 296.989,201.61 L 298.789,202.698 L 300.747,203.726 L 302.863,204.735 L 305.118,205.684 L 307.531,206.633 L 310.043,207.504 L 312.693,208.315 L 315.462,209.106 L 318.33,209.818 L 321.316,210.51 L 324.402,211.143 L 327.566,211.717 L 330.81,212.231 L 334.113,212.706 L 337.495,213.081 L 340.937,213.437 L 344.418,213.694 L 347.938,213.932 L 351.459,214.09 L 355.019,214.189 L 358.599,214.209 L 358.599,214.209 L 362.159,214.189 L 365.719,214.09 L 369.24,213.932 L 372.761,213.694 L 376.242,213.437 L 379.683,213.081 L 383.065,212.706 L 386.349,212.231 L 389.592,211.717 L 392.777,211.143 L 395.862,210.51 L 398.849,209.818 L 401.717,209.106 L 404.486,208.315 L 407.116,207.504 L 409.648,206.633 L 412.061,205.684 L 414.316,204.735 L 416.432,203.726 L 418.39,202.698 L 420.19,201.61 L 421.851,200.522 L 423.354,199.395 L 424.66,198.247 L 425.827,197.08 L 426.796,195.894 L 427.627,194.667 L 428.24,193.461 L 428.675,192.235 L 428.932,190.989 L 429.051,189.762z"/>
    <path style="fill: none; fill-opacity:0; stroke-width: 0.02; stroke: #aae6ff" d="M 428.22 189.367 L 428.121,188.121 L 427.884,186.934 L 427.429,185.708 L 426.816,184.521 L 426.005,183.334 L 424.976,182.167 L 423.908,181.04 L 422.563,179.893 L 421.08,178.785 L 419.438,177.678 L 417.619,176.649 L 415.68,175.621 L 413.584,174.632 L 411.349,173.682 L 408.975,172.772 L 406.444,171.942 L 403.793,171.151 L 401.064,170.34 L 398.216,169.667 L 395.249,168.955 L 392.163,168.342 L 389.038,167.788 L 385.834,167.274 L 382.531,166.839 L 379.189,166.424 L 375.747,166.107 L 372.306,165.81 L 368.805,165.613 L 365.284,165.474 L 361.744,165.355 L 358.204,165.355 L 358.204,165.355 L 354.624,165.355 L 351.103,165.474 L 347.563,165.613 L 344.101,165.81 L 340.64,166.107 L 337.218,166.424 L 333.856,166.839 L 330.553,167.274 L 327.329,167.788 L 324.204,168.342 L 321.119,168.955 L 318.152,169.667 L 315.324,170.34 L 312.574,171.151 L 309.924,171.942 L 307.412,172.772 L 305.058,173.682 L 302.823,174.632 L 300.707,175.621 L 298.729,176.649 L 296.969,177.678 L 295.308,178.785 L 293.824,179.893 L 292.519,181.04 L 291.372,182.167 L 290.383,183.334 L 289.592,184.521 L 288.959,185.708 L 288.504,186.934 L 288.247,188.121 L 288.148,189.367 L 288.148,189.367 L 288.247,190.573 L 288.504,191.819 L 288.959,192.986 L 289.592,194.193 L 290.383,195.399 L 291.372,196.546 L 292.519,197.694 L 293.824,198.841 L 295.308,199.929 L 296.969,201.036 L 298.729,202.084 L 300.707,203.073 L 302.823,204.082 L 305.058,205.051 L 307.412,205.921 L 309.924,206.772 L 312.574,207.583 L 315.324,208.374 L 318.152,209.066 L 321.119,209.739 L 324.204,210.372 L 327.329,210.925 L 330.553,211.42 L 333.856,211.895 L 337.218,212.29 L 340.64,212.607 L 344.101,212.884 L 347.563,213.081 L 351.103,213.259 L 354.624,213.358 L 358.204,213.378 L 358.204,213.378 L 361.744,213.358 L 365.284,213.259 L 368.805,213.081 L 372.306,212.884 L 375.747,212.607 L 379.189,212.29 L 382.531,211.895 L 385.834,211.42 L 389.038,210.925 L 392.163,210.372 L 395.249,209.739 L 398.216,209.066 L 401.064,208.374 L 403.793,207.583 L 406.444,206.772 L 408.975,205.921 L 411.349,205.051 L 413.584,204.082 L 415.68,203.073 L 417.619,202.084 L 419.438,201.036 L 421.08,199.929 L 422.563,198.841 L 423.908,197.694 L 424.976,196.546 L 426.005,195.399 L 426.816,194.193 L 427.429,192.986 L 427.884,191.819 L 428.121,190.573 L 428.22,189.367"/>
    <path style="fill: #0078aa" d="M 288.148 155.882 L 288.148,190.217 L 428.22,190.217 L 428.22,155.882 L 288.148,155.882z"/>
    <path style="fill: #00b4ff" d="M 429.051 155.466 L 428.932,154.22 L 428.675,152.954 L 428.24,151.748 L 427.627,150.522 L 426.796,149.295 L 425.827,148.109 L 424.66,146.942 L 423.354,145.814 L 421.851,144.667 L 420.19,143.599 L 418.39,142.511 L 416.432,141.483 L 414.316,140.454 L 412.061,139.525 L 409.648,138.595 L 407.116,137.705 L 404.486,136.874 L 401.717,136.103 L 398.849,135.371 L 395.862,134.699 L 392.777,134.085 L 389.592,133.492 L 386.349,132.978 L 383.065,132.503 L 379.683,132.108 L 376.242,131.771 L 372.761,131.494 L 369.24,131.277 L 365.719,131.119 L 362.159,131.02 L 358.599,131 L 358.599,131 L 355.019,131.02 L 351.459,131.119 L 347.938,131.277 L 344.418,131.494 L 340.937,131.771 L 337.495,132.108 L 334.113,132.503 L 330.81,132.978 L 327.566,133.492 L 324.402,134.085 L 321.316,134.699 L 318.33,135.371 L 315.462,136.103 L 312.693,136.874 L 310.043,137.705 L 307.531,138.595 L 305.118,139.525 L 302.863,140.454 L 300.747,141.483 L 298.789,142.511 L 296.989,143.599 L 295.327,144.667 L 293.824,145.814 L 292.519,146.942 L 291.352,148.109 L 290.383,149.295 L 289.552,150.522 L 288.919,151.748 L 288.464,152.954 L 288.227,154.22 L 288.128,155.466 L 288.128,155.466 L 288.227,156.692 L 288.464,157.938 L 288.919,159.165 L 289.552,160.351 L 290.383,161.578 L 291.352,162.764 L 292.519,163.931 L 293.824,165.098 L 295.327,166.226 L 296.989,167.294 L 298.789,168.362 L 300.747,169.43 L 302.863,170.419 L 305.118,171.368 L 307.531,172.298 L 310.043,173.168 L 312.693,174.019 L 315.462,174.77 L 318.33,175.502 L 321.316,176.194 L 324.402,176.847 L 327.566,177.381 L 330.81,177.915 L 334.113,178.39 L 337.495,178.765 L 340.937,179.102 L 344.418,179.379 L 347.938,179.596 L 351.459,179.774 L 355.019,179.873 L 358.599,179.893 L 358.599,179.893 L 362.159,179.873 L 365.719,179.774 L 369.24,179.596 L 372.761,179.379 L 376.242,179.102 L 379.683,178.765 L 383.065,178.39 L 386.349,177.915 L 389.592,177.381 L 392.777,176.847 L 395.862,176.194 L 398.849,175.502 L 401.717,174.77 L 404.486,174.019 L 407.116,173.168 L 409.648,172.298 L 412.061,171.368 L 414.316,170.419 L 416.432,169.43 L 418.39,168.362 L 420.19,167.294 L 421.851,166.226 L 423.354,165.098 L 424.66,163.931 L 425.827,162.764 L 426.796,161.578 L 427.627,160.351 L 428.24,159.165 L 428.675,157.938 L 428.932,156.692 L 429.051,155.466z"/>
    <path style="fill: none; fill-opacity:0; stroke-width: 0.02; stroke: #aae6ff" d="M 428.22 155.051 L 428.121,153.805 L 427.884,152.618 L 427.429,151.412 L 426.816,150.205 L 426.005,149.038 L 424.976,147.832 L 423.908,146.724 L 422.563,145.577 L 421.08,144.489 L 419.438,143.362 L 417.619,142.353 L 415.68,141.305 L 413.584,140.316 L 411.349,139.406 L 408.975,138.457 L 406.444,137.665 L 403.793,136.815 L 401.064,136.044 L 398.216,135.332 L 395.249,134.639 L 392.163,134.026 L 389.038,133.472 L 385.834,132.978 L 382.531,132.503 L 379.189,132.108 L 375.747,131.791 L 372.306,131.494 L 368.805,131.297 L 365.284,131.138 L 361.744,131.04 L 358.204,131.02 L 358.204,131.02 L 354.624,131.04 L 351.103,131.138 L 347.563,131.297 L 344.101,131.494 L 340.64,131.791 L 337.218,132.108 L 333.856,132.503 L 330.553,132.978 L 327.329,133.472 L 324.204,134.026 L 321.119,134.639 L 318.152,135.332 L 315.324,136.044 L 312.574,136.815 L 309.924,137.665 L 307.412,138.457 L 305.058,139.406 L 302.823,140.316 L 300.707,141.305 L 298.729,142.353 L 296.969,143.362 L 295.308,144.489 L 293.824,145.577 L 292.519,146.724 L 291.372,147.832 L 290.383,149.038 L 289.592,150.205 L 288.959,151.412 L 288.504,152.618 L 288.247,153.805 L 288.148,155.051 L 288.148,155.051 L 288.247,156.277 L 288.504,157.484 L 288.959,158.69 L 289.592,159.877 L 290.383,161.064 L 291.372,162.25 L 292.519,163.378 L 293.824,164.525 L 295.308,165.613 L 296.969,166.72 L 298.729,167.768 L 300.707,168.757 L 302.823,169.766 L 305.058,170.715 L 307.412,171.606 L 309.924,172.456 L 312.574,173.267 L 315.324,174.038 L 318.152,174.75 L 321.119,175.443 L 324.204,176.095 L 327.329,176.61 L 330.553,177.144 L 333.856,177.598 L 337.218,177.974 L 340.64,178.33 L 344.101,178.607 L 347.563,178.785 L 351.103,178.963 L 354.624,179.062 L 358.204,179.082 L 358.204,179.082 L 361.744,179.062 L 365.284,178.963 L 368.805,178.785 L 372.306,178.607 L 375.747,178.33 L 379.189,177.974 L 382.531,177.598 L 385.834,177.144 L 389.038,176.61 L 392.163,176.095 L 395.249,175.443 L 398.216,174.75 L 401.064,174.038 L 403.793,173.267 L 406.444,172.456 L 408.975,171.606 L 411.349,170.715 L 413.584,169.766 L 415.68,168.757 L 417.619,167.768 L 419.438,166.72 L 421.08,165.613 L 422.563,164.525 L 423.908,163.378 L 424.976,162.25 L 426.005,161.064 L 426.816,159.877 L 427.429,158.69 L 427.884,157.484 L 428.121,156.277 L 428.22,155.051"/>
    <path style="fill: #000000" d="M 359.905 149.908 L 370.15,153.35 L 394.932,143.025 L 406.028,146.447 L 400.035,137.903 L 371.02,137.903 L 382.947,140.454 L 359.905,149.908z"/>
    <path style="fill: #000000" d="M 355.613 159.343 L 345.387,155.882 L 321.455,166.226 L 309.509,162.764 L 315.462,172.199 L 345.387,172.199 L 332.551,168.757 L 355.613,159.343z"/>
    <path style="fill: #000000" d="M 312.06 140.454 L 322.286,137.032 L 347.088,146.447 L 358.204,143.896 L 352.23,152.44 L 323.156,152.44 L 335.102,149.908 L 312.06,140.454z"/>
    <path style="fill: #000000" d="M 404.308 169.608 L 394.042,173.049 L 370.15,162.764 L 358.204,166.226 L 364.177,157.602 L 394.042,157.602 L 381.246,160.173 L 404.308,169.608z"/>
    <path style="fill: #ffffff" d="M 360.755 150.759 L 371.02,154.181 L 395.743,143.896 L 406.879,147.337 L 400.886,138.733 L 371.851,138.733 L 383.817,141.285 L 360.755,150.759z"/>
    <path style="fill: #ffffff" d="M 356.483 160.173 L 346.198,156.752 L 322.286,167.037 L 310.339,163.615 L 316.312,173.049 L 346.198,173.049 L 333.401,169.608 L 356.483,160.173z"/>
    <path style="fill: #ffffff" d="M 312.911 141.285 L 323.156,137.903 L 347.938,147.337 L 359.034,144.726 L 353.081,153.35 L 324.006,153.35 L 335.992,150.759 L 312.911,141.285z"/>
    <path style="fill: #ffffff" d="M 405.138 170.498 L 394.932,173.92 L 371.02,163.615 L 359.034,167.037 L 365.007,158.492 L 394.932,158.492 L 382.116,161.044 L 405.138,170.498z"/>
    <path style="fill: none; fill-opacity:0; stroke-width: 0.02; stroke: #aae6ff" d="M 288.148 155.051 L 288.148,189.327"/>
    <path style="fill: none; fill-opacity:0; stroke-width: 0.02; stroke: #aae6ff" d="M 428.22 155.051 L 428.22,189.327"/>
  </g>
  <g>
    <path style="fill: #005a80" d="M 446.194 273.369 L 460.014,260 L 460.014,303.728 L 446.194,317.106 L 446.194,273.369z"/>
    <path style="fill: none; fill-opacity:0; stroke-width: 0.02; stroke: #aae6ff" d="M 446.194 273.369 L 459.848,260.147"/>
    <path style="fill: none; fill-opacity:0; stroke-width: 0.02; stroke: #aae6ff" d="M 459.876 303.856 L 446.194,317.106 L 446.194,273.369"/>
    <path style="fill: #00b4ff" d="M 446.194 273.369 L 460.014,260 L 415.312,260 L 401.511,273.369 L 446.194,273.369z"/>
    <path style="fill: none; fill-opacity:0; stroke-width: 0.02; stroke: #aae6ff" d="M 446.194 273.369 L 459.848,260.147"/>
    <path style="fill: none; fill-opacity:0; stroke-width: 0.02; stroke: #aae6ff" d="M 415.156 260.147 L 401.511,273.369 L 446.194,273.369"/>
    <path style="fill: #0096d4" d="M 401.511 273.369 L 401.511,317.106 L 446.194,317.106 L 446.194,273.369 L 401.511,273.369z"/>
    <path style="fill: none; fill-opacity:0; stroke-width: 0.02; stroke: #aae6ff" d="M 401.511 273.369 L 401.511,317.106 L 446.194,317.106 L 446.194,273.369 L 401.511,273.369"/>
    <path style="fill: #000000" d="M 429.536 266.882 L 427.928,268.508 L 439.294,268.508 L 437.677,270.53 L 447.003,268.095 L 442.151,266.083 L 440.911,266.882 L 429.536,266.882z"/>
    <path style="fill: #000000" d="M 435.223 261.617 L 433.606,263.234 L 444.981,263.234 L 442.932,265.256 L 452.69,262.426 L 447.407,260.395 L 446.598,261.617 L 435.223,261.617z"/>
    <path style="fill: #000000" d="M 425.474 271.339 L 427.119,269.712 L 415.312,269.712 L 417.361,267.691 L 407.998,270.116 L 412.877,272.147 L 413.695,271.339 L 425.474,271.339z"/>
    <path style="fill: #000000" d="M 430.758 265.66 L 432.393,264.052 L 421,264.052 L 423.039,262.012 L 413.281,264.842 L 418.565,266.882 L 419.373,265.66 L 430.758,265.66z"/>
    <path style="fill: #ffffff" d="M 429.94 267.286 L 428.323,268.894 L 439.698,268.894 L 438.081,270.925 L 447.407,268.508 L 442.528,266.487 L 441.324,267.286 L 429.94,267.286z"/>
    <path style="fill: #ffffff" d="M 435.618 262.012 L 434.001,263.639 L 445.386,263.639 L 443.364,265.66 L 453.104,262.821 L 447.821,260.809 L 447.003,262.012 L 435.618,262.012z"/>
    <path style="fill: #ffffff" d="M 425.879 271.734 L 427.496,270.116 L 415.735,270.116 L 417.747,268.095 L 408.402,270.53 L 413.281,272.542 L 414.09,271.734 L 425.879,271.734z"/>
    <path style="fill: #ffffff" d="M 431.153 266.083 L 432.797,264.447 L 421.395,264.447 L 423.453,262.426 L 413.695,265.256 L 418.978,267.286 L 419.768,266.083 L 431.153,266.083z"/>
    <path style="fill: #000000" d="M 410.451 277.412 L 410.451,281.878 L 419.373,281.878 L 424.252,291.985 L 429.131,281.878 L 438.081,281.878 L 438.081,277.412 L 443.759,283.081 L 438.081,288.769 L 438.081,284.699 L 431.566,284.699 L 426.301,296.055 L 431.566,307.385 L 438.081,307.385 L 438.081,303.333 L 443.759,308.993 L 438.081,314.68 L 438.081,310.628 L 429.131,310.628 L 424.252,300.089 L 419.373,310.628 L 410.451,310.628 L 410.451,314.68 L 404.745,308.993 L 410.451,303.333 L 410.451,307.385 L 416.543,307.385 L 422.212,296.055 L 416.543,284.699 L 410.451,284.699 L 410.451,288.769 L 404.745,283.081 L 410.451,277.412z"/>
    <path style="fill: #ffffff" d="M 410.837 277.816 L 410.837,282.273 L 419.768,282.273 L 424.666,292.398 L 429.536,282.273 L 438.476,282.273 L 438.476,277.816 L 444.182,283.495 L 438.476,289.164 L 438.476,285.103 L 431.971,285.103 L 426.706,296.441 L 431.971,307.789 L 438.476,307.789 L 438.476,303.728 L 444.182,309.406 L 438.476,315.075 L 438.476,311.023 L 429.536,311.023 L 424.666,300.503 L 419.768,311.023 L 410.837,311.023 L 410.837,315.075 L 405.149,309.406 L 410.837,303.728 L 410.837,307.789 L 416.947,307.789 L 422.635,296.441 L 416.947,285.103 L 410.837,285.103 L 410.837,289.164 L 405.149,283.495 L 410.837,277.816z"/>
  </g>
  <g>
    <path style="fill: #0096d4" d="M 480.606 87.4026 L 480.606,149.623 L 543.58,149.623 L 543.58,87.4026 L 480.606,87.4026z"/>
    <path style="fill: none; fill-opacity:0; stroke-width: 0.02; stroke: #aae6ff" d="M 480.606 149.623 L 543.58,149.623 L 543.58,87.4026 L 480.606,87.4026"/>
    <path style="fill: #00b4ff" d="M 480.606 87.4026 L 488.617,80 L 551.601,80 L 543.58,87.4026 L 480.606,87.4026z"/>
    <path style="fill: none; fill-opacity:0; stroke-width: 0.02; stroke: #aae6ff" d="M 480.606 87.4026 L 488.617,80 L 551.601,80 L 543.58,87.4026 L 480.606,87.4026"/>
    <path style="fill: #005a80" d="M 543.58 87.4026 L 551.601,80 L 551.601,141.623 L 543.58,149.036 L 543.58,87.4026z"/>
    <path style="fill: none; fill-opacity:0; stroke-width: 0.02; stroke: #aae6ff" d="M 543.58 87.4026 L 551.601,80 L 551.601,141.623 L 543.58,149.036 L 543.58,87.4026"/>
    <path style="fill: #000000" d="M 493.205 93.104 L 493.205,99.3725 L 505.793,99.3725 L 512.691,113.662 L 519.547,99.3725 L 532.156,99.3725 L 532.156,93.104 L 540.146,101.115 L 532.156,109.095 L 532.156,103.393 L 522.99,103.393 L 515.536,119.374 L 522.99,135.354 L 532.156,135.354 L 532.156,129.653 L 540.146,137.633 L 532.156,145.623 L 532.156,139.932 L 519.547,139.932 L 512.691,125.086 L 505.793,139.932 L 493.205,139.932 L 493.205,145.623 L 485.184,137.633 L 493.205,129.653 L 493.205,135.354 L 501.803,135.354 L 509.814,119.374 L 501.803,103.393 L 493.205,103.393 L 493.205,109.095 L 485.184,101.115 L 493.205,93.104z"/>
    <path style="fill: #ffffff" d="M 493.772 93.6917 L 493.772,99.9705 L 506.381,99.9705 L 513.258,114.229 L 520.114,99.9705 L 532.692,99.9705 L 532.692,93.6917 L 540.734,101.682 L 532.692,109.682 L 532.692,103.971 L 523.547,103.971 L 516.114,119.951 L 523.547,135.932 L 532.692,135.932 L 532.692,130.22 L 540.734,138.19 L 532.692,146.2 L 532.692,140.489 L 520.114,140.489 L 513.258,125.632 L 506.381,140.489 L 493.772,140.489 L 493.772,146.2 L 485.761,138.19 L 493.772,130.22 L 493.772,135.932 L 502.37,135.932 L 510.381,119.951 L 502.37,103.971 L 493.772,103.971 L 493.772,109.682 L 485.761,101.682 L 493.772,93.6917z"/>
  </g>
  <g>
    <path style="fill: #0096d4" d="M 343.715 -18.2591 L 343.715,88.7904 L 451.452,88.7904 L 451.452,-18.2591 L 343.715,-18.2591z"/>
    <path style="fill: none; fill-opacity:0; stroke-width: 0.02; stroke: #aae6ff" d="M 451.452 88.612 L 451.452,-18.2591 L 343.715,-18.2591"/>
    <path style="fill: #00b4ff" d="M 343.715 -18.2591 L 357.399,-31 L 465.213,-31 L 451.452,-18.2591 L 343.715,-18.2591z"/>
    <path style="fill: none; fill-opacity:0; stroke-width: 0.02; stroke: #aae6ff" d="M 343.715 -18.2591 L 357.399,-31 L 465.213,-31 L 451.452,-18.2591 L 343.715,-18.2591"/>
    <path style="fill: #005a80" d="M 451.452 -18.2591 L 465.213,-31 L 465.213,75.0302 L 451.452,87.7966 L 451.452,-18.2591z"/>
    <path style="fill: none; fill-opacity:0; stroke-width: 0.02; stroke: #aae6ff" d="M 451.452 -18.2591 L 465.213,-31 L 465.213,75.0302 L 451.452,87.7966 L 451.452,-18.2591"/>
    <path style="fill: #000000" d="M 385.862 29.8762 L 357.399,29.8762 L 357.399,25.9265 L 348.607,33.8005 L 357.399,42.6172 L 357.399,38.693 L 385.862,38.693 L 385.862,29.8762z"/>
    <path style="fill: #000000" d="M 391.672 23.9899 L 371.133,3.37507 L 374.089,0.444654 L 362.317,0.444654 L 362.317,12.1918 L 365.222,9.23591 L 385.862,29.8762 L 391.672,23.9899z"/>
    <path style="fill: #000000" d="M 400.514 23.9899 L 400.514,-5.46714 L 404.413,-5.46714 L 396.59,-13.341 L 387.799,-5.46714 L 391.672,-5.46714 L 391.672,23.9899 L 400.514,23.9899z"/>
    <path style="fill: #000000" d="M 406.4 29.8762 L 427.015,9.23591 L 429.895,12.1918 L 429.895,0.444654 L 418.199,0.444654 L 421.103,3.37507 L 400.514,23.9899 L 406.4,29.8762z"/>
    <path style="fill: #000000" d="M 406.4 38.693 L 435.781,38.693 L 435.781,42.6172 L 443.655,33.8005 L 435.781,25.9265 L 435.781,29.8762 L 406.4,29.8762 L 406.4,38.693z"/>
    <path style="fill: #000000" d="M 400.514 44.6048 L 421.103,65.2196 L 418.199,68.1755 L 429.895,67.2072 L 429.895,56.4284 L 427.015,59.3588 L 406.4,38.693 L 400.514,44.6048z"/>
    <path style="fill: #000000" d="M 391.672 44.6048 L 391.672,74.0873 L 387.799,74.0873 L 396.59,81.9103 L 404.413,74.0873 L 400.514,74.0873 L 400.514,44.6048 L 391.672,44.6048z"/>
    <path style="fill: #000000" d="M 385.862 38.693 L 365.222,59.3588 L 362.317,56.4284 L 362.317,68.1755 L 374.089,68.1755 L 371.133,65.2196 L 391.672,44.6048 L 385.862,38.693z"/>
    <path style="fill: #ffffff" d="M 386.805 30.87 L 358.418,30.87 L 358.418,26.9458 L 349.601,34.7942 L 358.418,43.6365 L 358.418,39.7122 L 386.805,39.7122 L 386.805,30.87z"/>
    <path style="fill: #ffffff" d="M 392.691 24.9837 L 372.102,4.3179 L 375.083,1.41297 L 363.311,1.41297 L 363.311,13.1856 L 366.19,10.2297 L 386.805,30.87 L 392.691,24.9837z"/>
    <path style="fill: #ffffff" d="M 401.508 24.9837 L 401.508,-4.52431 L 405.432,-4.52431 L 397.558,-12.3473 L 388.767,-4.52431 L 392.691,-4.52431 L 392.691,24.9837 L 401.508,24.9837z"/>
    <path style="fill: #ffffff" d="M 407.42 30.87 L 427.958,10.2297 L 430.914,13.1856 L 430.914,1.41297 L 419.141,1.41297 L 422.072,4.3179 L 401.508,24.9837 L 407.42,30.87z"/>
    <path style="fill: #ffffff" d="M 407.42 39.7122 L 436.724,39.7122 L 436.724,43.6365 L 444.623,34.7942 L 436.724,26.9458 L 436.724,30.87 L 407.42,30.87 L 407.42,39.7122z"/>
    <path style="fill: #ffffff" d="M 401.508 45.5986 L 422.072,66.2134 L 419.141,69.1184 L 430.914,68.1755 L 430.914,57.3712 L 427.958,60.3016 L 407.42,39.7122 L 401.508,45.5986z"/>
    <path style="fill: #ffffff" d="M 392.691 45.5986 L 392.691,75.0302 L 388.767,75.0302 L 397.558,82.9295 L 405.432,75.0302 L 401.508,75.0302 L 401.508,45.5986 L 392.691,45.5986z"/>
    <path style="fill: #ffffff" d="M 386.805 39.7122 L 366.19,60.3016 L 363.311,57.3712 L 363.311,69.1184 L 375.083,69.1184 L 372.102,66.2134 L 392.691,45.5986 L 386.805,39.7122z"/>
    <path style="fill: #000000" d="M 412.287 35.2529 L 412.21,34.4375 L 412.185,33.5966 L 412.057,32.7812 L 411.955,31.9912 L 411.726,31.1758 L 411.522,30.3859 L 411.242,29.6214 L 410.962,28.857 L 410.605,28.118 L 410.248,27.379 L 409.815,26.691 L 409.356,25.9775 L 408.872,25.315 L 408.363,24.7034 L 407.827,24.0664 L 407.241,23.5058 L 406.63,22.9452 L 405.993,22.4355 L 405.356,21.9514 L 404.668,21.5182 L 403.929,21.0595 L 403.241,20.7028 L 402.476,20.3715 L 401.712,20.0657 L 400.973,19.7854 L 400.132,19.5816 L 399.393,19.3777 L 398.527,19.2503 L 397.737,19.1484 L 396.921,19.0464 L 396.106,19.0464 L 396.106,19.0464 L 395.29,19.0464 L 394.5,19.1484 L 393.685,19.2503 L 392.87,19.3777 L 392.08,19.5816 L 391.29,19.7854 L 390.5,20.0657 L 389.735,20.3715 L 389.022,20.7028 L 388.308,21.0595 L 387.544,21.5182 L 386.856,21.9514 L 386.219,22.4355 L 385.582,22.9452 L 384.97,23.5058 L 384.435,24.0664 L 383.849,24.7034 L 383.339,25.315 L 382.881,25.9775 L 382.396,26.691 L 381.963,27.379 L 381.607,28.118 L 381.275,28.857 L 380.969,29.6214 L 380.689,30.3859 L 380.485,31.1758 L 380.307,31.9912 L 380.154,32.7812 L 380.027,33.5966 L 380.001,34.4375 L 379.976,35.2529 L 379.976,35.2529 L 380.001,36.0429 L 380.027,36.8838 L 380.154,37.6992 L 380.307,38.5146 L 380.485,39.3045 L 380.689,40.0945 L 380.969,40.8844 L 381.275,41.6234 L 381.607,42.3624 L 381.963,43.1013 L 382.396,43.7894 L 382.881,44.5028 L 383.339,45.1654 L 383.849,45.7769 L 384.435,46.363 L 384.97,46.9746 L 385.582,47.5352 L 386.219,48.0448 L 386.856,48.529 L 387.544,48.9877 L 388.308,49.3954 L 389.022,49.7776 L 389.735,50.1343 L 390.5,50.4401 L 391.29,50.644 L 392.08,50.8988 L 392.87,51.1027 L 393.685,51.2046 L 394.5,51.3575 L 395.29,51.4084 L 396.106,51.4339 L 396.106,51.4339 L 396.921,51.4084 L 397.737,51.3575 L 398.527,51.2046 L 399.393,51.1027 L 400.132,50.8988 L 400.973,50.644 L 401.712,50.4401 L 402.476,50.1343 L 403.241,49.7776 L 403.929,49.3954 L 404.668,48.9877 L 405.356,48.529 L 405.993,48.0448 L 406.63,47.5352 L 407.241,46.9746 L 407.827,46.363 L 408.363,45.7769 L 408.872,45.1654 L 409.356,44.5028 L 409.815,43.7894 L 410.248,43.1013 L 410.605,42.3624 L 410.962,41.6234 L 411.242,40.8844 L 411.522,40.0945 L 411.726,39.3045 L 411.955,38.5146 L 412.057,37.6992 L 412.185,36.8838 L 412.21,36.0429 L 412.287,35.2529z"/>
    <path style="fill: #ffffff" d="M 414.223 37.215 L 414.147,36.4251 L 414.096,35.5842 L 413.994,34.7688 L 413.892,33.9533 L 413.663,33.1634 L 413.459,32.348 L 413.179,31.5835 L 412.924,30.8446 L 412.516,30.0801 L 412.185,29.3666 L 411.752,28.6786 L 411.318,27.9651 L 410.809,27.3026 L 410.274,26.691 L 409.764,26.0794 L 409.178,25.4934 L 408.541,24.9328 L 407.904,24.4231 L 407.267,23.939 L 406.604,23.4803 L 405.865,23.0726 L 405.177,22.6649 L 404.387,22.3336 L 403.674,22.0278 L 402.909,21.773 L 402.094,21.5691 L 401.33,21.3398 L 400.489,21.2379 L 399.699,21.1105 L 398.858,21.0595 L 398.042,21.034 L 398.042,21.034 L 397.227,21.0595 L 396.437,21.1105 L 395.622,21.2379 L 394.806,21.3398 L 394.016,21.5691 L 393.226,21.773 L 392.436,22.0278 L 391.672,22.3336 L 390.958,22.6649 L 390.219,23.0726 L 389.506,23.4803 L 388.792,23.939 L 388.155,24.4231 L 387.518,24.9328 L 386.907,25.4934 L 386.372,26.0794 L 385.786,26.691 L 385.276,27.3026 L 384.792,27.9651 L 384.308,28.6786 L 383.925,29.3666 L 383.543,30.0801 L 383.212,30.8446 L 382.881,31.5835 L 382.651,32.348 L 382.396,33.1634 L 382.244,33.9533 L 382.091,34.7688 L 381.963,35.5842 L 381.938,36.4251 L 381.912,37.215 L 381.912,37.215 L 381.938,38.0304 L 381.963,38.8713 L 382.091,39.6358 L 382.244,40.4512 L 382.396,41.2666 L 382.651,42.0821 L 382.881,42.821 L 383.212,43.611 L 383.543,44.35 L 383.925,45.0889 L 384.308,45.7769 L 384.792,46.465 L 385.276,47.153 L 385.786,47.7645 L 386.372,48.3761 L 386.907,48.9622 L 387.518,49.5228 L 388.155,50.0069 L 388.792,50.5166 L 389.506,50.9243 L 390.219,51.383 L 390.958,51.7652 L 391.672,52.0964 L 392.436,52.4022 L 393.226,52.6571 L 394.016,52.8864 L 394.806,53.0648 L 395.622,53.1922 L 396.437,53.3196 L 397.227,53.396 L 398.042,53.396 L 398.042,53.396 L 398.858,53.396 L 399.699,53.3196 L 400.489,53.1922 L 401.33,53.0648 L 402.094,52.8864 L 402.909,52.6571 L 403.674,52.4022 L 404.387,52.0964 L 405.177,51.7652 L 405.865,51.383 L 406.604,50.9243 L 407.267,50.5166 L 407.904,50.0069 L 408.541,49.5228 L 409.178,48.9622 L 409.764,48.3761 L 410.274,47.7645 L 410.809,47.153 L 411.318,46.465 L 411.752,45.7769 L 412.185,45.0889 L 412.516,44.35 L 412.924,43.611 L 413.179,42.821 L 413.459,42.0821 L 413.663,41.2666 L 413.892,40.4512 L 413.994,39.6358 L 414.096,38.8713 L 414.147,38.0304 L 414.223,37.215z"/>
    <path style="fill: #e4405c" d="M 413.179 36.2467 L 413.153,35.4313 L 413.128,34.5904 L 413,33.8005 L 412.847,32.985 L 412.669,32.1696 L 412.465,31.4052 L 412.185,30.6152 L 411.879,29.8762 L 411.548,29.1118 L 411.191,28.3983 L 410.758,27.6848 L 410.274,26.9968 L 409.815,26.3343 L 409.305,25.7227 L 408.77,25.1111 L 408.184,24.525 L 407.573,23.9644 L 406.936,23.4293 L 406.298,22.9452 L 405.61,22.512 L 404.871,22.0788 L 404.183,21.6966 L 403.419,21.3398 L 402.655,21.0595 L 401.89,20.7792 L 401.075,20.5753 L 400.336,20.397 L 399.469,20.2441 L 398.679,20.1422 L 397.864,20.0657 L 397.074,20.0657 L 397.074,20.0657 L 396.233,20.0657 L 395.443,20.1422 L 394.628,20.2441 L 393.812,20.397 L 393.022,20.5753 L 392.232,20.7792 L 391.443,21.0595 L 390.678,21.3398 L 389.939,21.6966 L 389.226,22.0788 L 388.487,22.512 L 387.824,22.9452 L 387.187,23.4293 L 386.55,23.9644 L 385.913,24.525 L 385.378,25.1111 L 384.792,25.7227 L 384.282,26.3343 L 383.823,26.9968 L 383.339,27.6848 L 382.906,28.3983 L 382.575,29.1118 L 382.218,29.8762 L 381.912,30.6152 L 381.632,31.4052 L 381.428,32.1696 L 381.25,32.985 L 381.097,33.8005 L 380.969,34.5904 L 380.944,35.4313 L 380.919,36.2467 L 380.919,36.2467 L 380.944,37.0621 L 380.969,37.903 L 381.097,38.693 L 381.25,39.5084 L 381.428,40.3238 L 381.632,41.0883 L 381.912,41.8782 L 382.218,42.6172 L 382.575,43.3816 L 382.906,44.0951 L 383.339,44.8086 L 383.823,45.4966 L 384.282,46.1592 L 384.792,46.7707 L 385.378,47.3823 L 385.913,47.9684 L 386.55,48.529 L 387.187,49.0386 L 387.824,49.5483 L 388.487,49.9815 L 389.226,50.3892 L 389.939,50.7969 L 390.678,51.1281 L 391.443,51.4339 L 392.232,51.6887 L 393.022,51.9181 L 393.812,52.0964 L 394.628,52.2493 L 395.443,52.3513 L 396.233,52.4022 L 397.074,52.4277 L 397.074,52.4277 L 397.864,52.4022 L 398.679,52.3513 L 399.469,52.2493 L 400.336,52.0964 L 401.075,51.9181 L 401.89,51.6887 L 402.655,51.4339 L 403.419,51.1281 L 404.183,50.7969 L 404.871,50.3892 L 405.61,49.9815 L 406.298,49.5483 L 406.936,49.0386 L 407.573,48.529 L 408.184,47.9684 L 408.77,47.3823 L 409.305,46.7707 L 409.815,46.1592 L 410.274,45.4966 L 410.758,44.8086 L 411.191,44.0951 L 411.548,43.3816 L 411.879,42.6172 L 412.185,41.8782 L 412.465,41.0883 L 412.669,40.3238 L 412.847,39.5084 L 413,38.693 L 413.128,37.903 L 413.153,37.0621 L 413.179,36.2467z"/>
  </g>
  <g>
    <path style="fill: #0078aa" d="M 259.825 67.8419 L 259.688,66.4033 L 259.391,64.9647 L 258.889,63.5489 L 258.181,62.156 L 257.222,60.7403 L 256.103,59.3702 L 254.756,58.0229 L 253.249,56.6985 L 251.513,55.397 L 249.595,54.1411 L 247.517,52.9308 L 245.257,51.6977 L 242.813,50.5332 L 240.21,49.4371 L 237.424,48.3867 L 234.501,47.382 L 231.464,46.4001 L 228.268,45.5095 L 224.956,44.6647 L 221.508,43.8654 L 217.946,43.1347 L 214.27,42.5182 L 210.525,41.8788 L 206.734,41.3765 L 202.83,40.8969 L 198.856,40.5316 L 194.838,40.1891 L 190.773,39.9607 L 186.708,39.7324 L 182.598,39.6639 L 178.488,39.5954 L 178.488,39.5954 L 174.355,39.6639 L 170.245,39.7324 L 166.18,39.9607 L 162.115,40.1891 L 158.097,40.5316 L 154.123,40.8969 L 150.219,41.3765 L 146.405,41.8788 L 142.66,42.5182 L 139.007,43.1347 L 135.444,43.8654 L 131.996,44.6647 L 128.685,45.5095 L 125.489,46.4001 L 122.429,47.382 L 119.529,48.3867 L 116.743,49.4371 L 114.14,50.5332 L 111.696,51.6977 L 109.436,52.9308 L 107.358,54.1411 L 105.44,55.397 L 103.704,56.6985 L 102.197,58.0229 L 100.85,59.3702 L 99.731,60.7403 L 98.772,62.156 L 98.0413,63.5489 L 97.5161,64.9647 L 97.2421,66.4033 L 97.1279,67.8419 L 97.1279,67.8419 L 97.2421,69.2576 L 97.5161,70.6962 L 98.0413,72.112 L 98.772,73.5049 L 99.731,74.9206 L 100.85,76.2907 L 102.197,77.6379 L 103.704,78.9624 L 105.44,80.2639 L 107.358,81.5198 L 109.436,82.7758 L 111.696,83.9632 L 114.14,85.1277 L 116.743,86.2238 L 119.529,87.3199 L 122.429,88.3246 L 125.489,89.2608 L 128.685,90.1742 L 131.996,90.9962 L 135.444,91.7955 L 139.007,92.5262 L 142.66,93.1884 L 146.405,93.7821 L 150.219,94.3301 L 154.123,94.764 L 158.097,95.175 L 162.115,95.4718 L 166.18,95.7459 L 170.245,95.9285 L 174.355,96.0427 L 178.488,96.0655 L 178.488,96.0655 L 182.598,96.0427 L 186.708,95.9285 L 190.773,95.7459 L 194.838,95.4718 L 198.856,95.175 L 202.83,94.764 L 206.734,94.3301 L 210.525,93.7821 L 214.27,93.1884 L 217.946,92.5262 L 221.508,91.7955 L 224.956,90.9962 L 228.268,90.1742 L 231.464,89.2608 L 234.501,88.3246 L 237.424,87.3199 L 240.21,86.2238 L 242.813,85.1277 L 245.257,83.9632 L 247.517,82.7758 L 249.595,81.5198 L 251.513,80.2639 L 253.249,78.9624 L 254.756,77.6379 L 256.103,76.2907 L 257.222,74.9206 L 258.181,73.5049 L 258.889,72.112 L 259.391,70.6962 L 259.688,69.2576 L 259.825,67.8419z"/>
    <path style="fill: none; fill-opacity:0; stroke-width: 0.02; stroke: #aae6ff" d="M 258.866 67.3852 L 258.752,65.9466 L 258.478,64.5765 L 257.953,63.1608 L 257.245,61.7907 L 256.309,60.4206 L 255.121,59.0733 L 253.888,57.7718 L 252.335,56.4474 L 250.623,55.1686 L 248.727,53.8899 L 246.627,52.7025 L 244.389,51.5151 L 241.968,50.3733 L 239.388,49.2773 L 236.648,48.2269 L 233.725,47.2678 L 230.665,46.3544 L 227.514,45.4182 L 224.226,44.6418 L 220.801,43.8198 L 217.238,43.1119 L 213.63,42.4725 L 209.931,41.8788 L 206.118,41.3765 L 202.259,40.8969 L 198.286,40.5316 L 194.312,40.1891 L 190.271,39.9607 L 186.206,39.8009 L 182.119,39.6639 L 178.031,39.6639 L 178.031,39.6639 L 173.898,39.6639 L 169.834,39.8009 L 165.746,39.9607 L 161.75,40.1891 L 157.754,40.5316 L 153.804,40.8969 L 149.922,41.3765 L 146.108,41.8788 L 142.386,42.4725 L 138.778,43.1119 L 135.216,43.8198 L 131.791,44.6418 L 128.526,45.4182 L 125.352,46.3544 L 122.292,47.2678 L 119.392,48.2269 L 116.674,49.2773 L 114.094,50.3733 L 111.651,51.5151 L 109.367,52.7025 L 107.335,53.8899 L 105.417,55.1686 L 103.704,56.4474 L 102.197,57.7718 L 100.873,59.0733 L 99.731,60.4206 L 98.8176,61.7907 L 98.0869,63.1608 L 97.5617,64.5765 L 97.2649,65.9466 L 97.1507,67.3852 L 97.1507,67.3852 L 97.2649,68.7781 L 97.5617,70.2167 L 98.0869,71.5639 L 98.8176,72.9568 L 99.731,74.3498 L 100.873,75.6742 L 102.197,76.9986 L 103.704,78.323 L 105.417,79.5789 L 107.335,80.8576 L 109.367,82.0679 L 111.651,83.2096 L 114.094,84.3742 L 116.674,85.4931 L 119.392,86.4978 L 122.292,87.4797 L 125.352,88.4159 L 128.526,89.3293 L 131.791,90.1285 L 135.216,90.9049 L 138.778,91.6356 L 142.386,92.275 L 146.108,92.8459 L 149.922,93.3939 L 153.804,93.8506 L 157.754,94.2159 L 161.75,94.5356 L 165.746,94.764 L 169.834,94.9695 L 173.898,95.0837 L 178.031,95.1065 L 178.031,95.1065 L 182.119,95.0837 L 186.206,94.9695 L 190.271,94.764 L 194.312,94.5356 L 198.286,94.2159 L 202.259,93.8506 L 206.118,93.3939 L 209.931,92.8459 L 213.63,92.275 L 217.238,91.6356 L 220.801,90.9049 L 224.226,90.1285 L 227.514,89.3293 L 230.665,88.4159 L 233.725,87.4797 L 236.648,86.4978 L 239.388,85.4931 L 241.968,84.3742 L 244.389,83.2096 L 246.627,82.0679 L 248.727,80.8576 L 250.623,79.5789 L 252.335,78.323 L 253.888,76.9986 L 255.121,75.6742 L 256.309,74.3498 L 257.245,72.9568 L 257.953,71.5639 L 258.478,70.2167 L 258.752,68.7781 L 258.866,67.3852"/>
    <path style="fill: #0078aa" d="M 97.1507 28.726 L 97.1507,68.3671 L 258.866,68.3671 L 258.866,28.726 L 97.1507,28.726z"/>
    <path style="fill: #00b4ff" d="M 259.825 28.2465 L 259.688,26.8079 L 259.391,25.3465 L 258.889,23.9536 L 258.181,22.5378 L 257.222,21.1221 L 256.103,19.752 L 254.756,18.4048 L 253.249,17.1032 L 251.513,15.7788 L 249.595,14.5457 L 247.517,13.2898 L 245.257,12.1024 L 242.813,10.915 L 240.21,9.84175 L 237.424,8.76852 L 234.501,7.74096 L 231.464,6.7819 L 228.268,5.89135 L 224.956,5.04647 L 221.508,4.27009 L 217.946,3.56221 L 214.27,2.87717 L 210.525,2.28347 L 206.734,1.73544 L 202.83,1.27874 L 198.856,0.890553 L 194.838,0.570867 L 190.773,0.319686 L 186.708,0.137008 L 182.598,0.0228347 L 178.488,-1.77636e-014 L 178.488,-1.77636e-014 L 174.355,0.0228347 L 170.245,0.137008 L 166.18,0.319686 L 162.115,0.570867 L 158.097,0.890553 L 154.123,1.27874 L 150.219,1.73544 L 146.405,2.28347 L 142.66,2.87717 L 139.007,3.56221 L 135.444,4.27009 L 131.996,5.04647 L 128.685,5.89135 L 125.489,6.7819 L 122.429,7.74096 L 119.529,8.76852 L 116.743,9.84175 L 114.14,10.915 L 111.696,12.1024 L 109.436,13.2898 L 107.358,14.5457 L 105.44,15.7788 L 103.704,17.1032 L 102.197,18.4048 L 100.85,19.752 L 99.731,21.1221 L 98.772,22.5378 L 98.0413,23.9536 L 97.5161,25.3465 L 97.2421,26.8079 L 97.1279,28.2465 L 97.1279,28.2465 L 97.2421,29.6623 L 97.5161,31.1008 L 98.0413,32.5166 L 98.772,33.8867 L 99.731,35.3024 L 100.85,36.6725 L 102.197,38.0198 L 103.704,39.367 L 105.44,40.6686 L 107.358,41.9017 L 109.436,43.1347 L 111.696,44.3678 L 114.14,45.5095 L 116.743,46.6056 L 119.529,47.6788 L 122.429,48.6836 L 125.489,49.6655 L 128.685,50.5332 L 131.996,51.3781 L 135.444,52.1773 L 139.007,52.9308 L 142.66,53.5473 L 146.405,54.1639 L 150.219,54.7119 L 154.123,55.1458 L 158.097,55.534 L 162.115,55.8537 L 166.18,56.1048 L 170.245,56.3103 L 174.355,56.4245 L 178.488,56.4474 L 178.488,56.4474 L 182.598,56.4245 L 186.708,56.3103 L 190.773,56.1048 L 194.838,55.8537 L 198.856,55.534 L 202.83,55.1458 L 206.734,54.7119 L 210.525,54.1639 L 214.27,53.5473 L 217.946,52.9308 L 221.508,52.1773 L 224.956,51.3781 L 228.268,50.5332 L 231.464,49.6655 L 234.501,48.6836 L 237.424,47.6788 L 240.21,46.6056 L 242.813,45.5095 L 245.257,44.3678 L 247.517,43.1347 L 249.595,41.9017 L 251.513,40.6686 L 253.249,39.367 L 254.756,38.0198 L 256.103,36.6725 L 257.222,35.3024 L 258.181,33.8867 L 258.889,32.5166 L 259.391,31.1008 L 259.688,29.6623 L 259.825,28.2465z"/>
    <path style="fill: none; fill-opacity:0; stroke-width: 0.02; stroke: #aae6ff" d="M 258.866 27.767 L 258.752,26.3284 L 258.478,24.9583 L 257.953,23.5654 L 257.245,22.1725 L 256.309,20.8252 L 255.121,19.4323 L 253.888,18.1536 L 252.335,16.8292 L 250.623,15.5733 L 248.727,14.2717 L 246.627,13.1071 L 244.389,11.8969 L 241.968,10.7551 L 239.388,9.70474 L 236.648,8.60868 L 233.725,7.69529 L 230.665,6.7134 L 227.514,5.82285 L 224.226,5.0008 L 220.801,4.20158 L 217.238,3.49371 L 213.63,2.85434 L 209.931,2.28347 L 206.118,1.73544 L 202.259,1.27874 L 198.286,0.913388 L 194.312,0.570867 L 190.271,0.34252 L 186.206,0.159843 L 182.119,0.0456694 L 178.031,0.0228347 L 178.031,0.0228347 L 173.898,0.0456694 L 169.834,0.159843 L 165.746,0.34252 L 161.75,0.570867 L 157.754,0.913388 L 153.804,1.27874 L 149.922,1.73544 L 146.108,2.28347 L 142.386,2.85434 L 138.778,3.49371 L 135.216,4.20158 L 131.791,5.0008 L 128.526,5.82285 L 125.352,6.7134 L 122.292,7.69529 L 119.392,8.60868 L 116.674,9.70474 L 114.094,10.7551 L 111.651,11.8969 L 109.367,13.1071 L 107.335,14.2717 L 105.417,15.5733 L 103.704,16.8292 L 102.197,18.1536 L 100.873,19.4323 L 99.731,20.8252 L 98.8176,22.1725 L 98.0869,23.5654 L 97.5617,24.9583 L 97.2649,26.3284 L 97.1507,27.767 L 97.1507,27.767 L 97.2649,29.1827 L 97.5617,30.5757 L 98.0869,31.9686 L 98.8176,33.3386 L 99.731,34.7087 L 100.873,36.0788 L 102.197,37.3804 L 103.704,38.7048 L 105.417,39.9607 L 107.335,41.2395 L 109.367,42.4497 L 111.651,43.5914 L 114.094,44.756 L 116.674,45.8521 L 119.392,46.8796 L 122.292,47.8615 L 125.352,48.7977 L 128.526,49.6883 L 131.791,50.5103 L 135.216,51.3096 L 138.778,52.0631 L 142.386,52.6568 L 146.108,53.2733 L 149.922,53.7985 L 153.804,54.2324 L 157.754,54.6434 L 161.75,54.9631 L 165.746,55.1686 L 169.834,55.3741 L 173.898,55.4883 L 178.031,55.5111 L 178.031,55.5111 L 182.119,55.4883 L 186.206,55.3741 L 190.271,55.1686 L 194.312,54.9631 L 198.286,54.6434 L 202.259,54.2324 L 206.118,53.7985 L 209.931,53.2733 L 213.63,52.6568 L 217.238,52.0631 L 220.801,51.3096 L 224.226,50.5103 L 227.514,49.6883 L 230.665,48.7977 L 233.725,47.8615 L 236.648,46.8796 L 239.388,45.8521 L 241.968,44.756 L 244.389,43.5914 L 246.627,42.4497 L 248.727,41.2395 L 250.623,39.9607 L 252.335,38.7048 L 253.888,37.3804 L 255.121,36.0788 L 256.309,34.7087 L 257.245,33.3386 L 257.953,31.9686 L 258.478,30.5757 L 258.752,29.1827 L 258.866,27.767"/>
    <path style="fill: #000000" d="M 179.995 21.83 L 191.823,25.8032 L 220.435,13.8835 L 233.245,17.8339 L 226.327,7.96931 L 192.828,7.96931 L 206.597,10.915 L 179.995,21.83z"/>
    <path style="fill: #000000" d="M 175.04 32.7221 L 163.234,28.726 L 135.604,40.6686 L 121.812,36.6725 L 128.685,47.5647 L 163.234,47.5647 L 148.415,43.5914 L 175.04,32.7221z"/>
    <path style="fill: #000000" d="M 124.758 10.915 L 136.563,6.96458 L 165.198,17.8339 L 178.031,14.8882 L 171.135,24.7528 L 137.568,24.7528 L 151.36,21.83 L 124.758,10.915z"/>
    <path style="fill: #000000" d="M 231.259 44.5733 L 219.408,48.5466 L 191.823,36.6725 L 178.031,40.6686 L 184.927,30.7127 L 219.408,30.7127 L 204.634,33.6812 L 231.259,44.5733z"/>
    <path style="fill: #ffffff" d="M 180.977 22.8119 L 192.828,26.7623 L 221.371,14.8882 L 234.227,18.8615 L 227.308,8.92836 L 193.787,8.92836 L 207.602,11.874 L 180.977,22.8119z"/>
    <path style="fill: #ffffff" d="M 176.045 33.6812 L 164.171,29.7308 L 136.563,41.6048 L 122.771,37.6544 L 129.667,48.5466 L 164.171,48.5466 L 149.396,44.5733 L 176.045,33.6812z"/>
    <path style="fill: #ffffff" d="M 125.74 11.874 L 137.568,7.96931 L 166.18,18.8615 L 178.99,15.8473 L 172.117,25.8032 L 138.55,25.8032 L 152.388,22.8119 L 125.74,11.874z"/>
    <path style="fill: #ffffff" d="M 232.218 45.6009 L 220.435,49.5513 L 192.828,37.6544 L 178.99,41.6048 L 185.886,31.7402 L 220.435,31.7402 L 205.638,34.6859 L 232.218,45.6009z"/>
    <path style="fill: none; fill-opacity:0; stroke-width: 0.02; stroke: #aae6ff" d="M 97.1507 27.767 L 97.1507,67.3395"/>
    <path style="fill: none; fill-opacity:0; stroke-width: 0.02; stroke: #aae6ff" d="M 258.866 27.767 L 258.866,67.3395"/>
  </g>
</svg>
